<svg version="1.1" xmlns="http://www.w3.org/2000/svg" viewBox="0 0 1539.6705017089844 905.0534406517072" width="1539.6705017089844" height="905.0534406517072">
  <!-- svg-source:excalidraw -->
  
  <defs>
    <style class="style-fonts">
      @font-face {
        font-family: "Virgil";
        src: url("https://excalidraw.com/Virgil.woff2");
      }
      @font-face {
        font-family: "Cascadia";
        src: url("https://excalidraw.com/Cascadia.woff2");
      }
    </style>
  </defs>
  <rect x="0" y="0" width="1539.6705017089844" height="905.0534406517072" fill="#ffffff"></rect><g stroke-linecap="round" transform="translate(674.6705017089844 10) rotate(0 427.5 308.5)"><path d="M32 0 M32 0 C294.65 -0.88, 557.81 -0.44, 823 0 M823 0 C843.85 1.73, 854.69 12.55, 855 32 M855 32 C855.04 156.66, 854.28 281.85, 855 585 M855 585 C854.56 607.05, 843 617.02, 823 617 M823 617 C589.58 617.09, 356.15 617.24, 32 617 M32 617 C11.87 617.84, 1.51 606.05, 0 585 M0 585 C-1.54 426.33, -1.9 266.3, 0 32 M0 32 C-1.31 11.77, 8.88 1.83, 32 0" stroke="#000000" stroke-width="2.5" fill="none" stroke-dasharray="8 10"></path></g><g mask="url(#mask-U8zOBtQzlVxLrKHxU2yoD)" stroke-linecap="round"><g transform="translate(1354.8697801231056 892.6287195290361) rotate(179.5185341941617 -627.1543989712884 -336.9999117340726)"><path d="M0 0 C0.26 -204.04, 0.52 -408.07, 0.85 -660.87 M0.85 -660.87 C-430.1 -665.38, -861.05 -669.88, -1255.03 -674 M-1255.03 -674 C-1255.07 -653.21, -1255.12 -632.42, -1255.15 -614.38" stroke="#495057" stroke-width="1.5" fill="none" stroke-dasharray="8 9"></path></g><g transform="translate(1354.8697801231056 892.6287195290361) rotate(179.5185341941617 -627.1543989712884 -336.9999117340726)"><path d="M-1255.15 -614.38 L-1261.46 -627.98 L-1248.79 -627.96 L-1255.15 -614.38" stroke="none" stroke-width="0" fill="#495057" fill-rule="evenodd"></path><path d="M-1255.15 -614.38 C-1257.1 -618.58, -1259.05 -622.78, -1261.46 -627.98 M-1261.46 -627.98 C-1257.11 -627.98, -1252.76 -627.97, -1248.79 -627.96 M-1248.79 -627.96 C-1251.01 -623.22, -1253.23 -618.49, -1255.15 -614.38 M-1255.15 -614.38 C-1255.15 -614.38, -1255.15 -614.38, -1255.15 -614.38" stroke="#495057" stroke-width="1.5" fill="none"></path></g></g><mask id="mask-U8zOBtQzlVxLrKHxU2yoD"><rect x="0" y="0" fill="#fff" width="2710.8697801231056" height="1666.6285429971808"></rect><rect x="617.9211217983304" y="877.0534406517072" fill="#000" width="225.015625" height="18" opacity="1"></rect></mask><g transform="translate(617.9211217983305 877.0534406517072) rotate(0 109.79425935348661 -321.42463285674376)"><text x="112.5078125" y="0" font-family="Helvetica, Segoe UI Emoji" font-size="16px" fill="#495057" text-anchor="middle" style="white-space: pre;" direction="ltr" dominant-baseline="text-before-edge">Push changes to workflow code</text></g><g mask="url(#mask-3OiNkaF3Piknox-alUzLs)" stroke-linecap="round"><g transform="translate(778.6573647927571 670.5579549961694) rotate(0 107.87544551084858 -192.6255728242072)"><path d="M0 0 C-0.34 -62.59, -0.68 -125.18, -1.24 -227.58 M-1.24 -227.58 C-0.89 -262.22, -0.55 -296.87, 0.32 -385.19 M0.32 -385.19 C44.38 -385.2, 88.44 -385.22, 216.99 -385.25" stroke="#495057" stroke-width="1.5" fill="none" stroke-dasharray="8 9"></path></g><g transform="translate(778.6573647927571 670.5579549961694) rotate(0 107.87544551084858 -192.6255728242072)"><path d="M216.99 -385.25 L203.39 -378.91 L203.39 -391.59 L216.99 -385.25" stroke="none" stroke-width="0" fill="#495057" fill-rule="evenodd"></path><path d="M216.99 -385.25 C213.25 -383.51, 209.51 -381.76, 203.39 -378.91 M203.39 -378.91 C203.39 -381.69, 203.39 -384.48, 203.39 -391.59 M203.39 -391.59 C206.16 -390.3, 208.92 -389.01, 216.99 -385.25 M216.99 -385.25 C216.99 -385.25, 216.99 -385.25, 216.99 -385.25" stroke="#495057" stroke-width="1.5" fill="none"></path></g></g><mask id="mask-3OiNkaF3Piknox-alUzLs"><rect x="0" y="0" fill="#fff" width="1096.8819819819998" height="1155.809100644584"></rect><rect x="683.9299381983051" y="337.1719760769174" fill="#000" width="188.5390625" height="54" opacity="1"></rect></mask><g transform="translate(683.9299381983051 337.1719760769174) rotate(0 202.60287210530066 140.7604060950448)"><text x="94.26953125" y="0" font-family="Helvetica, Segoe UI Emoji" font-size="16px" fill="#495057" text-anchor="middle" style="white-space: pre;" direction="ltr" dominant-baseline="text-before-edge">FAIR and data quality </text><text x="94.26953125" y="18" font-family="Helvetica, Segoe UI Emoji" font-size="16px" fill="#495057" text-anchor="middle" style="white-space: pre;" direction="ltr" dominant-baseline="text-before-edge">assessment (event and/or </text><text x="94.26953125" y="36" font-family="Helvetica, Segoe UI Emoji" font-size="16px" fill="#495057" text-anchor="middle" style="white-space: pre;" direction="ltr" dominant-baseline="text-before-edge">polling-based)</text></g><g mask="url(#mask-9nSdIg2MXfFf5GjBVLbsb)" stroke-linecap="round"><g transform="translate(1034.8254166805418 298.16666666666606) rotate(0 0.9700850284424973 48.125)"><path d="M0 0 C0.58 28.92, 1.17 57.83, 1.94 96.25" stroke="#495057" stroke-width="1.5" fill="none" stroke-dasharray="8 9"></path></g><g transform="translate(1034.8254166805418 298.16666666666606) rotate(0 0.9700850284424973 48.125)"><path d="M1.94 96.25 L-4.67 82.79 L8 82.53 L1.94 96.25" stroke="none" stroke-width="0" fill="#495057" fill-rule="evenodd"></path><path d="M1.94 96.25 C-0.05 92.2, -2.03 88.16, -4.67 82.79 M-4.67 82.79 C-2.08 82.73, 0.52 82.68, 8 82.53 M8 82.53 C5.67 87.82, 3.33 93.1, 1.94 96.25 M1.94 96.25 C1.94 96.25, 1.94 96.25, 1.94 96.25" stroke="#495057" stroke-width="1.5" fill="none"></path></g></g><mask id="mask-9nSdIg2MXfFf5GjBVLbsb"><rect x="0" y="0" fill="#fff" width="1136.765586737427" height="494.41666666666606"></rect><rect x="957.0923767089844" y="328.29166666666606" fill="#000" width="157.40625" height="36" opacity="1"></rect></mask><g transform="translate(957.0923767089844 328.29166666666606) rotate(0 78.70312499999994 18)"><text x="78.703125" y="0" font-family="Helvetica, Segoe UI Emoji" font-size="16px" fill="#495057" text-anchor="middle" style="white-space: pre;" direction="ltr" dominant-baseline="text-before-edge">Runs/fetches results</text><text x="78.703125" y="18" font-family="Helvetica, Segoe UI Emoji" font-size="16px" fill="#495057" text-anchor="middle" style="white-space: pre;" direction="ltr" dominant-baseline="text-before-edge">of the QA assessment</text></g><g mask="url(#mask-6cg5CD5BjRPvitaj3iv1U)" stroke-linecap="round"><g transform="translate(968.5754166805418 556.9166666666661) rotate(0 1.125 58.5)"><path d="M0 0 C0.31 7.51, 0.62 15.02, 1.38 33.44 M1.38 33.44 C1.58 53.18, 1.79 72.93, 2.25 117" stroke="#495057" stroke-width="1.5" fill="none" stroke-dasharray="8 9"></path></g><g transform="translate(968.5754166805418 556.9166666666661) rotate(0 1.125 58.5)"><path d="M2.25 117 L-4.23 103.47 L8.45 103.34 L2.25 117" stroke="none" stroke-width="0" fill="#495057" fill-rule="evenodd"></path><path d="M2.25 117 C0.79 113.96, -0.66 110.92, -4.23 103.47 M-4.23 103.47 C-1.24 103.44, 1.76 103.41, 8.45 103.34 M8.45 103.34 C6.89 106.77, 5.33 110.2, 2.25 117 M2.25 117 C2.25 117, 2.25 117, 2.25 117" stroke="#495057" stroke-width="1.5" fill="none"></path></g></g><mask id="mask-6cg5CD5BjRPvitaj3iv1U"><rect x="0" y="0" fill="#fff" width="1070.8254166805418" height="773.9166666666661"></rect><rect x="885.0212836544058" y="572.3526666666658" fill="#000" width="169.859375" height="36" opacity="1"></rect></mask><g transform="translate(885.0212836544058 572.3526666666658) rotate(0 84.67913302613607 43.064000000000306)"><text x="84.9296875" y="0" font-family="Helvetica, Segoe UI Emoji" font-size="16px" fill="#495057" text-anchor="middle" style="white-space: pre;" direction="ltr" dominant-baseline="text-before-edge">Triggers deployment</text><text x="84.9296875" y="18" font-family="Helvetica, Segoe UI Emoji" font-size="16px" fill="#495057" text-anchor="middle" style="white-space: pre;" direction="ltr" dominant-baseline="text-before-edge">of pre-trained ML model</text></g><g mask="url(#mask-nTvlqIWpMUIQGd3IezZl6)" stroke-linecap="round"><g transform="translate(1320.9892863905136 675.6666666666661) rotate(0 -97.06878468152922 -183.66087116704966)"><path d="M0 0 C-0.43 -32.22, -0.86 -64.45, -1.25 -94.09 M-1.25 -94.09 C-75.7 -95.07, -150.14 -96.05, -191.64 -96.59 M-191.64 -96.59 C-192.52 -192.21, -193.4 -287.83, -194.14 -367.32" stroke="#495057" stroke-width="1.5" fill="none" stroke-dasharray="8 9"></path></g><g transform="translate(1320.9892863905136 675.6666666666661) rotate(0 -97.06878468152922 -183.66087116704966)"><path d="M-194.14 -367.32 L-187.67 -353.79 L-200.35 -353.67 L-194.14 -367.32" stroke="none" stroke-width="0" fill="#495057" fill-rule="evenodd"></path><path d="M-194.14 -367.32 C-191.92 -362.69, -189.71 -358.05, -187.67 -353.79 M-187.67 -353.79 C-192.63 -353.74, -197.59 -353.69, -200.35 -353.67 M-200.35 -353.67 C-198.16 -358.49, -195.96 -363.31, -194.14 -367.32 M-194.14 -367.32 C-194.14 -367.32, -194.14 -367.32, -194.14 -367.32" stroke="#495057" stroke-width="1.5" fill="none"></path></g></g><mask id="mask-nTvlqIWpMUIQGd3IezZl6"><rect x="0" y="0" fill="#fff" width="1615.126855753572" height="1142.9884090007654"></rect><rect x="1157.4048767089844" y="553.3218325661346" fill="#000" width="134.28125" height="54" opacity="1"></rect></mask><g transform="translate(1157.4048767089844 553.3218325661346) rotate(0 66.515625 -61.31603706651822)"><text x="67.140625" y="0" font-family="Helvetica, Segoe UI Emoji" font-size="16px" fill="#495057" text-anchor="middle" style="white-space: pre;" direction="ltr" dominant-baseline="text-before-edge">Event-based</text><text x="67.140625" y="18" font-family="Helvetica, Segoe UI Emoji" font-size="16px" fill="#495057" text-anchor="middle" style="white-space: pre;" direction="ltr" dominant-baseline="text-before-edge">worfklow validation</text><text x="67.140625" y="36" font-family="Helvetica, Segoe UI Emoji" font-size="16px" fill="#495057" text-anchor="middle" style="white-space: pre;" direction="ltr" dominant-baseline="text-before-edge">(DevOps)</text></g><g mask="url(#mask-hQPZymZbDbx3EaNQoouvm)" stroke-linecap="round"><g transform="translate(1195.9892863905136 304.2384090007654) rotate(0 82.30621531847066 186.33912883295034)"><path d="M0 0 C0.48 73.91, 0.96 147.82, 1.25 192.33 M1.25 192.33 C38.37 194.04, 75.5 195.74, 164.61 199.83 M164.61 199.83 C164.61 243.67, 164.61 287.5, 164.61 372.68" stroke="#495057" stroke-width="1.5" fill="none" stroke-dasharray="8 9"></path></g><g transform="translate(1195.9892863905136 304.2384090007654) rotate(0 82.30621531847066 186.33912883295034)"><path d="M164.61 372.68 L158.27 359.08 L170.95 359.08 L164.61 372.68" stroke="none" stroke-width="0" fill="#495057" fill-rule="evenodd"></path><path d="M164.61 372.68 C162.18 367.45, 159.74 362.23, 158.27 359.08 M158.27 359.08 C161.15 359.08, 164.04 359.08, 170.95 359.08 M170.95 359.08 C169.34 362.53, 167.74 365.98, 164.61 372.68 M164.61 372.68 C164.61 372.68, 164.61 372.68, 164.61 372.68" stroke="#495057" stroke-width="1.5" fill="none"></path></g></g><mask id="mask-hQPZymZbDbx3EaNQoouvm"><rect x="0" y="0" fill="#fff" width="1460.601717027455" height="776.9166666666662"></rect><rect x="1222.4556579589841" y="482.3218325661346" fill="#000" width="112.9296875" height="36" opacity="1"></rect></mask><g transform="translate(1222.4556579589844 482.3218325661346) rotate(0 55.83984375 8.255705267581106)"><text x="56.46484375" y="0" font-family="Helvetica, Segoe UI Emoji" font-size="16px" fill="#495057" text-anchor="middle" style="white-space: pre;" direction="ltr" dominant-baseline="text-before-edge">Registers/loads</text><text x="56.46484375" y="18" font-family="Helvetica, Segoe UI Emoji" font-size="16px" fill="#495057" text-anchor="middle" style="white-space: pre;" direction="ltr" dominant-baseline="text-before-edge">QA assessment</text></g><g mask="url(#mask-p-4UZ2mS62amFkVDGbh1s)" stroke-linecap="round"><g transform="translate(1439.8254166805418 454.41666666666606) rotate(0 1.422542514221277 111.25)"><path d="M0 0 C0.88 32.95, 1.76 65.91, 2.85 106.25 M2.85 106.25 C2.85 142.4, 2.85 178.54, 2.85 222.5" stroke="#495057" stroke-width="1.5" fill="none" stroke-dasharray="8 9"></path></g><g transform="translate(1439.8254166805418 454.41666666666606) rotate(0 1.422542514221277 111.25)"><path d="M2.85 222.5 L-3.49 208.91 L9.18 208.91 L2.85 222.5" stroke="none" stroke-width="0" fill="#495057" fill-rule="evenodd"></path><path d="M2.85 222.5 C0.88 218.28, -1.09 214.07, -3.49 208.91 M-3.49 208.91 C0.45 208.91, 4.39 208.91, 9.18 208.91 M9.18 208.91 C7.39 212.76, 5.59 216.62, 2.85 222.5 M2.85 222.5 C2.85 222.5, 2.85 222.5, 2.85 222.5" stroke="#495057" stroke-width="1.5" fill="none"></path></g></g><mask id="mask-p-4UZ2mS62amFkVDGbh1s"><rect x="0" y="0" fill="#fff" width="1542.6705017089844" height="776.9166666666661"></rect><rect x="1386.2056579589844" y="542.6666666666661" fill="#000" width="112.9296875" height="36" opacity="1"></rect></mask><g transform="translate(1386.2056579589844 542.6666666666661) rotate(0 55.04230123577872 23)"><text x="56.46484375" y="0" font-family="Helvetica, Segoe UI Emoji" font-size="16px" fill="#495057" text-anchor="middle" style="white-space: pre;" direction="ltr" dominant-baseline="text-before-edge">Modifies</text><text x="56.46484375" y="18" font-family="Helvetica, Segoe UI Emoji" font-size="16px" fill="#495057" text-anchor="middle" style="white-space: pre;" direction="ltr" dominant-baseline="text-before-edge">QA assessment</text></g><g mask="url(#mask-zaF6PxhCcpeHNgtn9qQ1n)" stroke-linecap="round"><g transform="translate(1241.8554575673743 67.01051862902659) rotate(0 -43.125 26.875)"><path d="M0 0 C-22.48 0, -44.96 0, -86.25 0 M-86.25 0 C-86.25 21, -86.25 42.01, -86.25 53.75" stroke="#495057" stroke-width="1.5" fill="none" stroke-dasharray="8 9"></path></g><g transform="translate(1241.8554575673743 67.01051862902659) rotate(0 -43.125 26.875)"><path d="M-86.25 53.75 L-92.59 40.16 L-79.91 40.16 L-86.25 53.75" stroke="none" stroke-width="0" fill="#495057" fill-rule="evenodd"></path><path d="M-86.25 53.75 C-87.9 50.21, -89.55 46.66, -92.59 40.16 M-92.59 40.16 C-87.63 40.16, -82.68 40.16, -79.91 40.16 M-79.91 40.16 C-81.31 43.16, -82.71 46.17, -86.25 53.75 M-86.25 53.75 C-86.25 53.75, -86.25 53.75, -86.25 53.75" stroke="#495057" stroke-width="1.5" fill="none"></path></g></g><mask id="mask-zaF6PxhCcpeHNgtn9qQ1n"><rect x="0" y="0" fill="#fff" width="1428.1054575673743" height="220.7605186290266"></rect><rect x="1123.5898325673743" y="58.01051862902659" fill="#000" width="64.03125" height="18" opacity="1"></rect></mask><g transform="translate(1123.5898325673743 58.01051862902659) rotate(0 75.140625 35.875)"><text x="32.015625" y="0" font-family="Helvetica, Segoe UI Emoji" font-size="16px" fill="#495057" text-anchor="middle" style="white-space: pre;" direction="ltr" dominant-baseline="text-before-edge">Get tools</text></g><g mask="url(#mask-PQZNMqF9BTIHKr_gVJnSs)" stroke-linecap="round"><g transform="translate(981.8033142089844 67.66733334400215) rotate(0 36.875 27.812166661331958)"><path d="M0 0 C24.24 0.21, 48.47 0.41, 73.75 0.62 M73.75 0.62 C73.75 22.33, 73.75 44.03, 73.75 55.62" stroke="#495057" stroke-width="1.5" fill="none" stroke-dasharray="8 9"></path></g><g transform="translate(981.8033142089844 67.66733334400215) rotate(0 36.875 27.812166661331958)"><path d="M73.75 55.62 L67.41 42.03 L80.09 42.03 L73.75 55.62" stroke="none" stroke-width="0" fill="#495057" fill-rule="evenodd"></path><path d="M73.75 55.62 C71.67 51.16, 69.58 46.69, 67.41 42.03 M67.41 42.03 C72.41 42.03, 77.42 42.03, 80.09 42.03 M80.09 42.03 C78.42 45.61, 76.75 49.19, 73.75 55.62 M73.75 55.62 C73.75 55.62, 73.75 55.62, 73.75 55.62" stroke="#495057" stroke-width="1.5" fill="none"></path></g></g><mask id="mask-PQZNMqF9BTIHKr_gVJnSs"><rect x="0" y="0" fill="#fff" width="1155.5533142089844" height="223.29166666666646"></rect><rect x="1018.1939392089844" y="59.29166666666606" fill="#000" width="74.71875" height="18" opacity="1"></rect></mask><g transform="translate(1018.1939392089844 59.29166666666606) rotate(0 0.484375 36.18783333866804)"><text x="37.359375" y="0" font-family="Helvetica, Segoe UI Emoji" font-size="16px" fill="#495057" text-anchor="middle" style="white-space: pre;" direction="ltr" dominant-baseline="text-before-edge">Leverages</text></g><g mask="url(#mask--To8_K4SSeZdSaXzOTVlZ)" stroke-linecap="round"><g transform="translate(437.3254166805418 264.41666666666606) rotate(0 278.4700850284425 -0.625)"><path d="M0 0 C35.81 -0.72, 71.61 -1.44, 124.1 -2.5 M124.1 -2.5 C238.68 -1.51, 353.26 -0.51, 556.94 1.25" stroke="#495057" stroke-width="1.5" fill="none" stroke-dasharray="8 9"></path></g><g transform="translate(437.3254166805418 264.41666666666606) rotate(0 278.4700850284425 -0.625)"><path d="M556.94 1.25 L543.29 7.47 L543.4 -5.21 L556.94 1.25" stroke="none" stroke-width="0" fill="#495057" fill-rule="evenodd"></path><path d="M556.94 1.25 C553 3.05, 549.06 4.84, 543.29 7.47 M543.29 7.47 C543.32 4.12, 543.35 0.76, 543.4 -5.21 M543.4 -5.21 C548.13 -2.95, 552.86 -0.7, 556.94 1.25 M556.94 1.25 C556.94 1.25, 556.94 1.25, 556.94 1.25" stroke="#495057" stroke-width="1.5" fill="none"></path></g></g><mask id="mask--To8_K4SSeZdSaXzOTVlZ"><rect x="0" y="0" fill="#fff" width="1094.265586737427" height="368.16666666666606"></rect><rect x="480.4947204589843" y="234.91666666666606" fill="#000" width="161.8515625" height="54" opacity="1"></rect></mask><g transform="translate(480.4947204589843 234.91666666666606) rotate(0 235.30078125 28.875)"><text x="80.92578125" y="0" font-family="Helvetica, Segoe UI Emoji" font-size="16px" fill="#495057" text-anchor="middle" style="white-space: pre;" direction="ltr" dominant-baseline="text-before-edge">Triggers pre-defined</text><text x="80.92578125" y="18" font-family="Helvetica, Segoe UI Emoji" font-size="16px" fill="#495057" text-anchor="middle" style="white-space: pre;" direction="ltr" dominant-baseline="text-before-edge">QA assessment</text><text x="80.92578125" y="36" font-family="Helvetica, Segoe UI Emoji" font-size="16px" fill="#495057" text-anchor="middle" style="white-space: pre;" direction="ltr" dominant-baseline="text-before-edge">as step in the workflow</text></g><g mask="url(#mask-JCCXkp7qssQJon9GgToWj)" stroke-linecap="round"><g transform="translate(997.3254166805419 221.91666666666606) rotate(0 -278.4049149715575 -1.875)"><path d="M0 0 C-79.16 -0.44, -158.32 -0.89, -223.4 -1.25 M-223.4 -1.25 C-336.38 -2.1, -449.35 -2.94, -556.81 -3.75" stroke="#495057" stroke-width="1.5" fill="none" stroke-dasharray="8 9"></path></g><g transform="translate(997.3254166805419 221.91666666666606) rotate(0 -278.4049149715575 -1.875)"><path d="M-556.81 -3.75 L-543.17 -9.99 L-543.26 2.69 L-556.81 -3.75" stroke="none" stroke-width="0" fill="#495057" fill-rule="evenodd"></path><path d="M-556.81 -3.75 C-551.98 -5.96, -547.14 -8.17, -543.17 -9.99 M-543.17 -9.99 C-543.2 -5.69, -543.23 -1.4, -543.26 2.69 M-543.26 2.69 C-548.53 0.19, -553.79 -2.31, -556.81 -3.75 M-556.81 -3.75 C-556.81 -3.75, -556.81 -3.75, -556.81 -3.75" stroke="#495057" stroke-width="1.5" fill="none"></path></g></g><mask id="mask-JCCXkp7qssQJon9GgToWj"><rect x="0" y="0" fill="#fff" width="1654.135246623657" height="325.66666666666606"></rect><rect x="696.9947204589845" y="202.66666666666606" fill="#000" width="153.8515625" height="36" opacity="1"></rect></mask><g transform="translate(696.9947204589844 202.66666666666606) rotate(0 21.92578125 17.375)"><text x="76.92578125" y="0" font-family="Helvetica, Segoe UI Emoji" font-size="16px" fill="#495057" text-anchor="middle" style="white-space: pre;" direction="ltr" dominant-baseline="text-before-edge">Gets deployed as</text><text x="76.92578125" y="18" font-family="Helvetica, Segoe UI Emoji" font-size="16px" fill="#495057" text-anchor="middle" style="white-space: pre;" direction="ltr" dominant-baseline="text-before-edge">a step in the workflow</text></g><g mask="url(#mask--mxl1EQkhWZqCmIkZDN4y)" stroke-linecap="round"><g transform="translate(150.03236417321875 118.80559050967895) rotate(0 281.2414740702123 -1.8299000366241671)"><path d="M0 0 C158.94 -1.03, 317.88 -2.07, 562.48 -3.66" stroke="#495057" stroke-width="1.5" fill="none" stroke-dasharray="8 9"></path></g><g transform="translate(150.03236417321875 118.80559050967895) rotate(0 281.2414740702123 -1.8299000366241671)"><path d="M562.48 -3.66 L548.93 2.77 L548.85 -9.91 L562.48 -3.66" stroke="none" stroke-width="0" fill="#495057" fill-rule="evenodd"></path><path d="M562.48 -3.66 C558.65 -1.84, 554.82 -0.03, 548.93 2.77 M548.93 2.77 C548.91 -0.4, 548.89 -3.58, 548.85 -9.91 M548.85 -9.91 C552.46 -8.26, 556.07 -6.6, 562.48 -3.66 M562.48 -3.66 C562.48 -3.66, 562.48 -3.66, 562.48 -3.66" stroke="#495057" stroke-width="1.5" fill="none"></path></g></g><mask id="mask--mxl1EQkhWZqCmIkZDN4y"><rect x="0" y="0" fill="#fff" width="812.5153123136433" height="222.46539058292728"></rect><rect x="374.80899449343104" y="98.97569047305478" fill="#000" width="112.9296875" height="36" opacity="1"></rect></mask><g transform="translate(374.80899449343104 98.97569047305478) rotate(0 56.46484375 18)"><text x="56.46484375" y="0" font-family="Helvetica, Segoe UI Emoji" font-size="16px" fill="#495057" text-anchor="middle" style="white-space: pre;" direction="ltr" dominant-baseline="text-before-edge">Defines custom</text><text x="56.46484375" y="18" font-family="Helvetica, Segoe UI Emoji" font-size="16px" fill="#495057" text-anchor="middle" style="white-space: pre;" direction="ltr" dominant-baseline="text-before-edge">QA assessment</text></g><g stroke-linecap="round"><g transform="translate(151.48554585059446 229.07281470430644) rotate(0 19.559955858389912 21.468851962360077)"><path d="M0 0 C0.31 10.53, 0.61 21.06, 1.25 42.94 M1.25 42.94 C13.86 42.94, 26.47 42.94, 39.12 42.94" stroke="#495057" stroke-width="1.5" fill="none" stroke-dasharray="8 9"></path></g><g transform="translate(151.48554585059446 229.07281470430644) rotate(0 19.559955858389912 21.468851962360077)"><path d="M39.12 42.94 L25.53 49.28 L25.53 36.6 L39.12 42.94" stroke="none" stroke-width="0" fill="#495057" fill-rule="evenodd"></path><path d="M39.12 42.94 C35.79 44.49, 32.45 46.05, 25.53 49.28 M25.53 49.28 C25.53 45.05, 25.53 40.83, 25.53 36.6 M25.53 36.6 C29.26 38.34, 32.99 40.08, 39.12 42.94 M39.12 42.94 C39.12 42.94, 39.12 42.94, 39.12 42.94" stroke="#495057" stroke-width="1.5" fill="none"></path></g></g><mask></mask><g stroke-linecap="round" transform="translate(1254.4205017089844 37.41666666666606) rotate(0 119.5 105.125)"><path d="M0 0 L239 0 L239 210.25 L0 210.25" stroke="none" stroke-width="0" fill="#55b8f5"></path><path d="M0 0 C60.22 0, 120.44 0, 239 0 M0 0 C58.72 0, 117.44 0, 239 0 M239 0 C239 81.5, 239 163, 239 210.25 M239 0 C239 66.02, 239 132.04, 239 210.25 M239 210.25 C149.96 210.25, 60.93 210.25, 0 210.25 M239 210.25 C163.59 210.25, 88.18 210.25, 0 210.25 M0 210.25 C0 147.58, 0 84.9, 0 0 M0 210.25 C0 137.44, 0 64.63, 0 0" stroke="#343a40" stroke-width="1" fill="none"></path></g><g transform="translate(1289.1452722883596 54.690030052548536) rotate(0 87.275390625 11.428571428571558)"><text x="87.275390625" y="0" font-family="Helvetica, Segoe UI Emoji" font-size="20px" fill="#ffffff" text-anchor="middle" style="white-space: pre;" direction="ltr" dominant-baseline="text-before-edge">Tooling &amp; Reporting</text></g><g transform="translate(1319.3861999511719 84.92476908365825) rotate(0 51.5625 9.5)"><text x="51.5625" y="0" font-family="Cascadia, Segoe UI Emoji" font-size="16px" fill="#ffffff" text-anchor="middle" style="white-space: pre;" direction="ltr" dominant-baseline="text-before-edge">[Component]</text></g><g transform="translate(1275.5973739624023 140.63318888346384) rotate(0 102.71045684814453 36)"><text x="102.71045684814453" y="0" font-family="Helvetica, Segoe UI Emoji" font-size="15.865696957236834px" fill="#ffffff" text-anchor="middle" style="white-space: pre;" direction="ltr" dominant-baseline="text-before-edge">Catalogs the supported QA</text><text x="102.71045684814453" y="18" font-family="Helvetica, Segoe UI Emoji" font-size="15.865696957236834px" fill="#ffffff" text-anchor="middle" style="white-space: pre;" direction="ltr" dominant-baseline="text-before-edge"> tools and provides plugins to</text><text x="102.71045684814453" y="36" font-family="Helvetica, Segoe UI Emoji" font-size="15.865696957236834px" fill="#ffffff" text-anchor="middle" style="white-space: pre;" direction="ltr" dominant-baseline="text-before-edge">parse and validate their</text><text x="102.71045684814453" y="54" font-family="Helvetica, Segoe UI Emoji" font-size="15.865696957236834px" fill="#ffffff" text-anchor="middle" style="white-space: pre;" direction="ltr" dominant-baseline="text-before-edge">outputs </text></g><g stroke-linecap="round" transform="translate(1256.9205017089844 288.04166666666606) rotate(0 119.5 78.25)"><path d="M0 0 L239 0 L239 156.5 L0 156.5" stroke="none" stroke-width="0" fill="#55b8f5"></path><path d="M0 0 C81.65 0, 163.3 0, 239 0 M0 0 C91.93 0, 183.86 0, 239 0 M239 0 C239 44.84, 239 89.68, 239 156.5 M239 0 C239 57.59, 239 115.18, 239 156.5 M239 156.5 C187.71 156.5, 136.43 156.5, 0 156.5 M239 156.5 C181.16 156.5, 123.33 156.5, 0 156.5 M0 156.5 C0 121.77, 0 87.04, 0 0 M0 156.5 C0 105.94, 0 55.39, 0 0" stroke="#343a40" stroke-width="1" fill="none"></path></g><g transform="translate(1326.1228113508596 305.31503005254854) rotate(0 52.7978515625 11.428571428571558)"><text x="52.7978515625" y="0" font-family="Helvetica, Segoe UI Emoji" font-size="20px" fill="#ffffff" text-anchor="middle" style="white-space: pre;" direction="ltr" dominant-baseline="text-before-edge">JePL library</text></g><g transform="translate(1321.8861999511719 335.54976908365825) rotate(0 51.5625 9.5)"><text x="51.5625" y="0" font-family="Cascadia, Segoe UI Emoji" font-size="16px" fill="#ffffff" text-anchor="middle" style="white-space: pre;" direction="ltr" dominant-baseline="text-before-edge">[Component]</text></g><g transform="translate(1292.7952194213867 391.25818888346384) rotate(0 88.01261138916016 18)"><text x="88.01261138916016" y="0" font-family="Helvetica, Segoe UI Emoji" font-size="15.865696957236834px" fill="#ffffff" text-anchor="middle" style="white-space: pre;" direction="ltr" dominant-baseline="text-before-edge">YAML-based definition of</text><text x="88.01261138916016" y="18" font-family="Helvetica, Segoe UI Emoji" font-size="15.865696957236834px" fill="#ffffff" text-anchor="middle" style="white-space: pre;" direction="ltr" dominant-baseline="text-before-edge">Jenkins CI/CD pipelines</text></g><g stroke-linecap="round" transform="translate(861.9205017089844 396.16666666666606) rotate(0 119.5 78.25)"><path d="M0 0 L239 0 L239 156.5 L0 156.5" stroke="none" stroke-width="0" fill="#55b8f5"></path><path d="M0 0 C63.01 0, 126.02 0, 239 0 M0 0 C75.37 0, 150.75 0, 239 0 M239 0 C239 50.76, 239 101.53, 239 156.5 M239 0 C239 48.85, 239 97.71, 239 156.5 M239 156.5 C187.39 156.5, 135.78 156.5, 0 156.5 M239 156.5 C181.77 156.5, 124.54 156.5, 0 156.5 M0 156.5 C0 115.9, 0 75.3, 0 0 M0 156.5 C0 95.68, 0 34.85, 0 0" stroke="#343a40" stroke-width="1" fill="none"></path></g><g transform="translate(939.4724207258596 413.44003005254854) rotate(0 44.4482421875 11.428571428571558)"><text x="44.4482421875" y="0" font-family="Helvetica, Segoe UI Emoji" font-size="20px" fill="#ffffff" text-anchor="middle" style="white-space: pre;" direction="ltr" dominant-baseline="text-before-edge">CI system</text></g><g transform="translate(884.6986999511719 443.67476908365825) rotate(0 93.75 9.5)"><text x="93.75" y="0" font-family="Cascadia, Segoe UI Emoji" font-size="16px" fill="#ffffff" text-anchor="middle" style="white-space: pre;" direction="ltr" dominant-baseline="text-before-edge">[Component: Jenkins]</text></g><g transform="translate(894.9957962036133 499.38318888346384) rotate(0 90.8120346069336 18)"><text x="90.8120346069336" y="0" font-family="Helvetica, Segoe UI Emoji" font-size="15.865696957236834px" fill="#ffffff" text-anchor="middle" style="white-space: pre;" direction="ltr" dominant-baseline="text-before-edge">Manages the execution of</text><text x="90.8120346069336" y="18" font-family="Helvetica, Segoe UI Emoji" font-size="15.865696957236834px" fill="#ffffff" text-anchor="middle" style="white-space: pre;" direction="ltr" dominant-baseline="text-before-edge">CI/CD pipelines</text></g><g stroke-linecap="round" transform="translate(994.4205017089844 121.16666666666606) rotate(0 119.5 91.375)"><path d="M0 0 L239 0 L239 182.75 L0 182.75" stroke="none" stroke-width="0" fill="#55b8f5"></path><path d="M0 0 C83.94 0, 167.87 0, 239 0 M0 0 C76.22 0, 152.44 0, 239 0 M239 0 C239 49.35, 239 98.71, 239 182.75 M239 0 C239 54.42, 239 108.84, 239 182.75 M239 182.75 C155.19 182.75, 71.38 182.75, 0 182.75 M239 182.75 C167.94 182.75, 96.87 182.75, 0 182.75 M0 182.75 C0 130.77, 0 78.79, 0 0 M0 182.75 C0 143.7, 0 104.66, 0 0" stroke="#343a40" stroke-width="1" fill="none"></path></g><g transform="translate(1058.6130457258596 138.44003005254854) rotate(0 57.8076171875 11.428571428571558)"><text x="57.8076171875" y="0" font-family="Helvetica, Segoe UI Emoji" font-size="20px" fill="#ffffff" text-anchor="middle" style="white-space: pre;" direction="ltr" dominant-baseline="text-before-edge">SQAaaS API</text></g><g transform="translate(1059.3861999511719 168.67476908365825) rotate(0 51.5625 9.5)"><text x="51.5625" y="0" font-family="Cascadia, Segoe UI Emoji" font-size="16px" fill="#ffffff" text-anchor="middle" style="white-space: pre;" direction="ltr" dominant-baseline="text-before-edge">[Component]</text></g><g transform="translate(1009.4449005126953 215.63318888346384) rotate(0 108.86293029785156 36)"><text x="108.86293029785156" y="0" font-family="Helvetica, Segoe UI Emoji" font-size="15.865696957236834px" fill="#ffffff" text-anchor="middle" style="white-space: pre;" direction="ltr" dominant-baseline="text-before-edge">Implements core functionalities</text><text x="108.86293029785156" y="18" font-family="Helvetica, Segoe UI Emoji" font-size="15.865696957236834px" fill="#ffffff" text-anchor="middle" style="white-space: pre;" direction="ltr" dominant-baseline="text-before-edge">of QA assessment of digital</text><text x="108.86293029785156" y="36" font-family="Helvetica, Segoe UI Emoji" font-size="15.865696957236834px" fill="#ffffff" text-anchor="middle" style="white-space: pre;" direction="ltr" dominant-baseline="text-before-edge">assets and creation of</text><text x="108.86293029785156" y="54" font-family="Helvetica, Segoe UI Emoji" font-size="15.865696957236834px" fill="#ffffff" text-anchor="middle" style="white-space: pre;" direction="ltr" dominant-baseline="text-before-edge">customized C/CD pipelines</text></g><g stroke-linecap="round" transform="translate(727.9205055236816 25.29166666666606) rotate(0 119.5 80.125)"><path d="M0 0 L239 0 L239 160.25 L0 160.25" stroke="none" stroke-width="0" fill="#55b8f5"></path><path d="M0 0 C93.59 0, 187.18 0, 239 0 M0 0 C58.67 0, 117.34 0, 239 0 M239 0 C239 35.61, 239 71.22, 239 160.25 M239 0 C239 50.47, 239 100.94, 239 160.25 M239 160.25 C161.94 160.25, 84.88 160.25, 0 160.25 M239 160.25 C173.93 160.25, 108.87 160.25, 0 160.25 M0 160.25 C0 122.82, 0 85.39, 0 0 M0 160.25 C0 102, 0 43.74, 0 0" stroke="#343a40" stroke-width="1" fill="none"></path></g><g transform="translate(789.8864870405569 42.565030052548536) rotate(0 60.0341796875 11.428571428571558)"><text x="60.0341796875" y="0" font-family="Helvetica, Segoe UI Emoji" font-size="20px" fill="#ffffff" text-anchor="middle" style="white-space: pre;" direction="ltr" dominant-baseline="text-before-edge">SQAaaS web</text></g><g transform="translate(792.8862037658691 72.79976908365825) rotate(0 51.5625 9.5)"><text x="51.5625" y="0" font-family="Cascadia, Segoe UI Emoji" font-size="16px" fill="#ffffff" text-anchor="middle" style="white-space: pre;" direction="ltr" dominant-baseline="text-before-edge">[Component]</text></g><g transform="translate(773.3472328186035 119.75818888346384) rotate(0 78.46060180664062 27)"><text x="78.46060180664062" y="0" font-family="Helvetica, Segoe UI Emoji" font-size="15.865696957236834px" fill="#ffffff" text-anchor="middle" style="white-space: pre;" direction="ltr" dominant-baseline="text-before-edge">Provides the graphical</text><text x="78.46060180664062" y="18" font-family="Helvetica, Segoe UI Emoji" font-size="15.865696957236834px" fill="#ffffff" text-anchor="middle" style="white-space: pre;" direction="ltr" dominant-baseline="text-before-edge">interface to SQAaaS</text><text x="78.46060180664062" y="36" font-family="Helvetica, Segoe UI Emoji" font-size="15.865696957236834px" fill="#ffffff" text-anchor="middle" style="white-space: pre;" direction="ltr" dominant-baseline="text-before-edge">platform</text></g><a href="[[system_containers_diagram]]"><g stroke-linecap="round" transform="translate(190.67050170898438 174.91666666666606) rotate(0 119.5 69.5)"><path d="M0 0 L239 0 L239 139 L0 139" stroke="none" stroke-width="0" fill="#228be6"></path><path d="M0 0 C51.56 0, 103.12 0, 239 0 M0 0 C74.76 0, 149.53 0, 239 0 M239 0 C239 51.02, 239 102.03, 239 139 M239 0 C239 39.18, 239 78.35, 239 139 M239 139 C160.57 139, 82.14 139, 0 139 M239 139 C177.69 139, 116.39 139, 0 139 M0 139 C0 98.35, 0 57.7, 0 0 M0 139 C0 86.53, 0 34.07, 0 0" stroke="#343a40" stroke-width="1" fill="none"></path></g></a><g transform="translate(215.40746490655988 189.89782556003956) rotate(0 97.0703125 11.428571428571558)"><text x="97.0703125" y="0" font-family="Helvetica, Segoe UI Emoji" font-size="20px" fill="#fff" text-anchor="middle" style="white-space: pre;" direction="ltr" dominant-baseline="text-before-edge">Workflow composition</text></g><g transform="translate(230.1573959302798 221.049538633285) rotate(0 79.6875 9.5)"><text x="79.6875" y="0" font-family="Cascadia, Segoe UI Emoji" font-size="16px" fill="#fff" text-anchor="middle" style="white-space: pre;" direction="ltr" dominant-baseline="text-before-edge">[Software System]</text></g><g transform="translate(226.4936080972618 267.39582063775197) rotate(0 83.7341537475586 18)"><text x="83.7341537475586" y="0" font-family="Helvetica, Segoe UI Emoji" font-size="15.865696957236834px" fill="#fff" text-anchor="middle" style="white-space: pre;" direction="ltr" dominant-baseline="text-before-edge">Define, deploy and run</text><text x="83.7341537475586" y="18" font-family="Helvetica, Segoe UI Emoji" font-size="15.865696957236834px" fill="#fff" text-anchor="middle" style="white-space: pre;" direction="ltr" dominant-baseline="text-before-edge">trigger-based workflows</text></g><g stroke-linecap="round" transform="translate(54.6726357822115 66.53240311142417) rotate(0 28.91514724998504 30.62864447345146)"><path d="M57.83 30.63 C57.83 32.4, 57.68 34.2, 57.39 35.95 C57.1 37.69, 56.66 39.44, 56.09 41.1 C55.51 42.77, 54.79 44.41, 53.96 45.94 C53.12 47.48, 52.14 48.96, 51.07 50.32 C49.99 51.67, 48.78 52.95, 47.5 54.09 C46.22 55.23, 44.82 56.27, 43.37 57.15 C41.92 58.04, 40.38 58.8, 38.8 59.41 C37.23 60.02, 35.58 60.48, 33.94 60.79 C32.29 61.1, 30.59 61.26, 28.92 61.26 C27.24 61.26, 25.54 61.1, 23.89 60.79 C22.25 60.48, 20.6 60.02, 19.03 59.41 C17.45 58.8, 15.91 58.04, 14.46 57.15 C13.01 56.27, 11.61 55.23, 10.33 54.09 C9.05 52.95, 7.84 51.67, 6.76 50.32 C5.69 48.96, 4.71 47.48, 3.87 45.94 C3.04 44.41, 2.32 42.77, 1.74 41.1 C1.17 39.44, 0.73 37.69, 0.44 35.95 C0.15 34.2, 0 32.4, 0 30.63 C0 28.86, 0.15 27.06, 0.44 25.31 C0.73 23.56, 1.17 21.82, 1.74 20.15 C2.32 18.49, 3.04 16.85, 3.87 15.31 C4.71 13.78, 5.69 12.3, 6.76 10.94 C7.84 9.58, 9.05 8.31, 10.33 7.17 C11.61 6.03, 13.01 4.99, 14.46 4.1 C15.91 3.22, 17.45 2.45, 19.03 1.85 C20.6 1.24, 22.25 0.77, 23.89 0.47 C25.54 0.16, 27.24 0, 28.92 0 C30.59 0, 32.29 0.16, 33.94 0.47 C35.58 0.77, 37.23 1.24, 38.8 1.85 C40.38 2.45, 41.92 3.22, 43.37 4.1 C44.82 4.99, 46.22 6.03, 47.5 7.17 C48.78 8.31, 49.99 9.58, 51.07 10.94 C52.14 12.3, 53.12 13.78, 53.96 15.31 C54.79 16.85, 55.51 18.49, 56.09 20.15 C56.66 21.82, 57.1 23.56, 57.39 25.31 C57.68 27.06, 57.76 29.74, 57.83 30.63 C57.9 31.52, 57.9 29.74, 57.83 30.63" stroke="none" stroke-width="0" fill="#0c37a2"></path><path d="M57.83 30.63 C57.83 32.4, 57.68 34.2, 57.39 35.95 C57.1 37.69, 56.66 39.44, 56.09 41.1 C55.51 42.77, 54.79 44.41, 53.96 45.94 C53.12 47.48, 52.14 48.96, 51.07 50.32 C49.99 51.67, 48.78 52.95, 47.5 54.09 C46.22 55.23, 44.82 56.27, 43.37 57.15 C41.92 58.04, 40.38 58.8, 38.8 59.41 C37.23 60.02, 35.58 60.48, 33.94 60.79 C32.29 61.1, 30.59 61.26, 28.92 61.26 C27.24 61.26, 25.54 61.1, 23.89 60.79 C22.25 60.48, 20.6 60.02, 19.03 59.41 C17.45 58.8, 15.91 58.04, 14.46 57.15 C13.01 56.27, 11.61 55.23, 10.33 54.09 C9.05 52.95, 7.84 51.67, 6.76 50.32 C5.69 48.96, 4.71 47.48, 3.87 45.94 C3.04 44.41, 2.32 42.77, 1.74 41.1 C1.17 39.44, 0.73 37.69, 0.44 35.95 C0.15 34.2, 0 32.4, 0 30.63 C0 28.86, 0.15 27.06, 0.44 25.31 C0.73 23.56, 1.17 21.82, 1.74 20.15 C2.32 18.49, 3.04 16.85, 3.87 15.31 C4.71 13.78, 5.69 12.3, 6.76 10.94 C7.84 9.58, 9.05 8.31, 10.33 7.17 C11.61 6.03, 13.01 4.99, 14.46 4.1 C15.91 3.22, 17.45 2.45, 19.03 1.85 C20.6 1.24, 22.25 0.77, 23.89 0.47 C25.54 0.16, 27.24 0, 28.92 0 C30.59 0, 32.29 0.16, 33.94 0.47 C35.58 0.77, 37.23 1.24, 38.8 1.85 C40.38 2.45, 41.92 3.22, 43.37 4.1 C44.82 4.99, 46.22 6.03, 47.5 7.17 C48.78 8.31, 49.99 9.58, 51.07 10.94 C52.14 12.3, 53.12 13.78, 53.96 15.31 C54.79 16.85, 55.51 18.49, 56.09 20.15 C56.66 21.82, 57.1 23.56, 57.39 25.31 C57.68 27.06, 57.76 29.74, 57.83 30.63 C57.9 31.52, 57.9 29.74, 57.83 30.63" stroke="#0c37a2" stroke-width="1" fill="none"></path></g><g stroke-linecap="round" transform="translate(10 122.46733655521712) rotate(0 72.67050170898438 45.178515307291946)"><path d="M22.59 0 L122.75 0 L132.63 1.41 L136.52 3.18 L142.16 8.82 L144.99 17.29 L145.34 67.77 L144.99 73.06 L142.16 81.53 L136.52 87.18 L132.63 88.95 L122.75 90.36 L22.59 90.36 L12.71 88.95 L8.82 87.18 L3.18 81.53 L0.35 73.06 L0.35 17.29 L3.18 8.82 L8.82 3.18 L17.29 0.35 L22.59 0" stroke="none" stroke-width="0" fill="#0c37a2"></path><path d="M22.59 0 M22.59 0 C59.38 0, 96.18 0, 122.75 0 M22.59 0 C50.46 0, 78.33 0, 122.75 0 M122.75 0 C137.81 0, 145.34 7.53, 145.34 22.59 M122.75 0 C137.81 0, 145.34 7.53, 145.34 22.59 M145.34 22.59 C145.34 32.09, 145.34 41.59, 145.34 67.77 M145.34 22.59 C145.34 36.85, 145.34 51.11, 145.34 67.77 M145.34 67.77 C145.34 82.83, 137.81 90.36, 122.75 90.36 M145.34 67.77 C145.34 82.83, 137.81 90.36, 122.75 90.36 M122.75 90.36 C89.48 90.36, 56.21 90.36, 22.59 90.36 M122.75 90.36 C89.63 90.36, 56.5 90.36, 22.59 90.36 M22.59 90.36 C7.53 90.36, 0 82.83, 0 67.77 M22.59 90.36 C7.53 90.36, 0 82.83, 0 67.77 M0 67.77 C0 52.62, 0 37.46, 0 22.59 M0 67.77 C0 52.05, 0 36.34, 0 22.59 M0 22.59 C0 7.53, 7.53 0, 22.59 0 M0 22.59 C0 7.53, 7.53 0, 22.59 0" stroke="#0c37a2" stroke-width="1" fill="none"></path></g><a href="https://DT"><g transform="translate(43.40951787279823 132.3943350500158) rotate(0 38.64385986328125 7.371228555246944)"><text x="38.64385986328125" y="0" font-family="Helvetica, Segoe UI Emoji" font-size="12.899649971681916px" fill="#fff" text-anchor="middle" style="white-space: pre;" direction="ltr" dominant-baseline="text-before-edge">DT developer</text></g></a><g transform="translate(58.85969217702643 148.98622670132954) rotate(0 24.13330078125 6.127333736548735)"><text x="24.13330078125" y="0" font-family="Cascadia, Segoe UI Emoji" font-size="10.31971997734553px" fill="#fff" text-anchor="middle" style="white-space: pre;" direction="ltr" dominant-baseline="text-before-edge">[Person]</text></g><g transform="translate(16.002182006835938 180.52670546816898) rotate(0 66.66831970214844 5.804842487256792)"><text x="66.66831970214844" y="0" font-family="Helvetica, Segoe UI Emoji" font-size="10.319719977345533px" fill="#fff" text-anchor="middle" style="white-space: pre;" direction="ltr" dominant-baseline="text-before-edge">Defines use case-specific DT</text></g><a href="[[container_components_diagram]]"><g stroke-linecap="round" transform="translate(641.9205017089844 682.4166666666661) rotate(0 119.5 90.75)"><path d="M0 0 L239 0 L239 181.5 L0 181.5" stroke="none" stroke-width="0" fill="#228be6"></path><path d="M0 0 C82.63 0, 165.26 0, 239 0 M0 0 C55.15 0, 110.31 0, 239 0 M239 0 C239 39.41, 239 78.81, 239 181.5 M239 0 C239 71.92, 239 143.84, 239 181.5 M239 181.5 C174.52 181.5, 110.04 181.5, 0 181.5 M239 181.5 C174.78 181.5, 110.55 181.5, 0 181.5 M0 181.5 C0 118.69, 0 55.89, 0 0 M0 181.5 C0 121.97, 0 62.45, 0 0" stroke="#343a40" stroke-width="1" fill="none"></path></g></a><a href="https://D"><g transform="translate(664.7188834322819 699.8978255600396) rotate(0 97.841796875 22.857142857142662)"><text x="97.841796875" y="0" font-family="Helvetica, Segoe UI Emoji" font-size="20px" fill="#fff" text-anchor="middle" style="white-space: pre;" direction="ltr" dominant-baseline="text-before-edge">Data and computation</text><text x="97.841796875" y="22.857142857142854" font-family="Helvetica, Segoe UI Emoji" font-size="20px" fill="#fff" text-anchor="middle" style="white-space: pre;" direction="ltr" dominant-baseline="text-before-edge">abstraction</text></g></a><g transform="translate(708.3652988310018 747.049538633285) rotate(0 51.5625 9.5)"><text x="51.5625" y="0" font-family="Cascadia, Segoe UI Emoji" font-size="16px" fill="#fff" text-anchor="middle" style="white-space: pre;" direction="ltr" dominant-baseline="text-before-edge">[Container]</text></g><g transform="translate(647.0298725092143 777.395820637752) rotate(0 113.28079223632812 36)"><text x="113.28079223632812" y="0" font-family="Helvetica, Segoe UI Emoji" font-size="15.865696957236834px" fill="#fff" text-anchor="middle" style="white-space: pre;" direction="ltr" dominant-baseline="text-before-edge">Provides abstractions to</text><text x="113.28079223632812" y="18" font-family="Helvetica, Segoe UI Emoji" font-size="15.865696957236834px" fill="#fff" text-anchor="middle" style="white-space: pre;" direction="ltr" dominant-baseline="text-before-edge">access data on the </text><text x="113.28079223632812" y="36" font-family="Helvetica, Segoe UI Emoji" font-size="15.865696957236834px" fill="#fff" text-anchor="middle" style="white-space: pre;" direction="ltr" dominant-baseline="text-before-edge">infrastructure and computational</text><text x="113.28079223632812" y="54" font-family="Helvetica, Segoe UI Emoji" font-size="15.865696957236834px" fill="#fff" text-anchor="middle" style="white-space: pre;" direction="ltr" dominant-baseline="text-before-edge">resources</text></g><a href="[[container_components_diagram]]"><g stroke-linecap="round" transform="translate(905.9204978942871 684.9166666666661) rotate(0 119.5 90.75)"><path d="M0 0 L239 0 L239 181.5 L0 181.5" stroke="none" stroke-width="0" fill="#228be6"></path><path d="M0 0 C57.05 0, 114.09 0, 239 0 M0 0 C74.54 0, 149.07 0, 239 0 M239 0 C239 50.27, 239 100.54, 239 181.5 M239 0 C239 68.08, 239 136.16, 239 181.5 M239 181.5 C156.13 181.5, 73.26 181.5, 0 181.5 M239 181.5 C168.82 181.5, 98.64 181.5, 0 181.5 M0 181.5 C0 122.69, 0 63.87, 0 0 M0 181.5 C0 142.79, 0 104.09, 0 0" stroke="#343a40" stroke-width="1" fill="none"></path></g></a><a href="https://D"><g transform="translate(949.8712233675847 702.3978255600396) rotate(0 76.689453125 11.428571428571558)"><text x="76.689453125" y="0" font-family="Helvetica, Segoe UI Emoji" font-size="20px" fill="#fff" text-anchor="middle" style="white-space: pre;" direction="ltr" dominant-baseline="text-before-edge">AI/ML subsystem</text></g></a><g transform="translate(973.6152950163046 732.049538633285) rotate(0 51.5625 9.5)"><text x="51.5625" y="0" font-family="Cascadia, Segoe UI Emoji" font-size="16px" fill="#fff" text-anchor="middle" style="white-space: pre;" direction="ltr" dominant-baseline="text-before-edge">[Container]</text></g><g transform="translate(917.2133251154155 779.895820637752) rotate(0 107.09733581542969 27)"><text x="107.09733581542969" y="0" font-family="Helvetica, Segoe UI Emoji" font-size="15.865696957236834px" fill="#fff" text-anchor="middle" style="white-space: pre;" direction="ltr" dominant-baseline="text-before-edge">Provides the user with AI/ML</text><text x="107.09733581542969" y="18" font-family="Helvetica, Segoe UI Emoji" font-size="15.865696957236834px" fill="#fff" text-anchor="middle" style="white-space: pre;" direction="ltr" dominant-baseline="text-before-edge">tools to perform distributed ML</text><text x="107.09733581542969" y="36" font-family="Helvetica, Segoe UI Emoji" font-size="15.865696957236834px" fill="#fff" text-anchor="middle" style="white-space: pre;" direction="ltr" dominant-baseline="text-before-edge">training and HPO</text></g><g stroke-linecap="round" transform="translate(1241.9205017089844 683.6666666666661) rotate(0 119.5 69.5)"><path d="M0 0 L239 0 L239 139 L0 139" stroke="none" stroke-width="0" fill="#868e96"></path><path d="M0 0 C73.29 0, 146.58 0, 239 0 M0 0 C87.98 0, 175.96 0, 239 0 M239 0 C239 46.36, 239 92.72, 239 139 M239 0 C239 53.89, 239 107.77, 239 139 M239 139 C152.18 139, 65.35 139, 0 139 M239 139 C159.47 139, 79.93 139, 0 139 M0 139 C0 92.35, 0 45.7, 0 0 M0 139 C0 105.39, 0 71.79, 0 0" stroke="#000000" stroke-width="1" fill="none"></path></g><g transform="translate(1320.5016818227346 705.2266475442502) rotate(0 47.7978515625 11.428571428571558)"><text x="47.7978515625" y="0" font-family="Helvetica, Segoe UI Emoji" font-size="20px" fill="#fff" text-anchor="middle" style="white-space: pre;" direction="ltr" dominant-baseline="text-before-edge">Repository</text></g><g transform="translate(1250.9047546386719 734.8236033121739) rotate(0 112.5 19)"><text x="112.5" y="0" font-family="Cascadia, Segoe UI Emoji" font-size="16px" fill="#fff" text-anchor="middle" style="white-space: pre;" direction="ltr" dominant-baseline="text-before-edge">[Software System: </text><text x="112.5" y="19" font-family="Cascadia, Segoe UI Emoji" font-size="16px" fill="#fff" text-anchor="middle" style="white-space: pre;" direction="ltr" dominant-baseline="text-before-edge">github.com/interTwin-eu]</text></g><g transform="translate(1282.803810119629 786.3202921549473) rotate(0 79.77318572998047 9)"><text x="79.77318572998047" y="0" font-family="Helvetica, Segoe UI Emoji" font-size="15.865696957236834px" fill="#fff" text-anchor="middle" style="white-space: pre;" direction="ltr" dominant-baseline="text-before-edge">Stores DT applications</text></g></svg>