<svg version="1.1" xmlns="http://www.w3.org/2000/svg" viewBox="0 0 1220.668588499762 729.4077005031346" width="1220.668588499762" height="729.4077005031346">
  <!-- svg-source:excalidraw -->
  
  <defs>
    <style class="style-fonts">
      @font-face {
        font-family: "Virgil";
        src: url("https://excalidraw.com/Virgil.woff2");
      }
      @font-face {
        font-family: "Cascadia";
        src: url("https://excalidraw.com/Cascadia.woff2");
      }
    </style>
    
  </defs>
  <rect x="0" y="0" width="1220.668588499762" height="729.4077005031346" fill="#ffffff"></rect><g stroke-linecap="round" transform="translate(58.496871386098974 10) rotate(0 31.390450837266826 33.25063331837259)"><path d="M62.78 33.25 C62.78 34.98, 62.65 36.74, 62.39 38.45 C62.14 40.16, 61.75 41.88, 61.24 43.53 C60.74 45.17, 60.1 46.8, 59.36 48.35 C58.62 49.89, 57.75 51.39, 56.79 52.79 C55.82 54.2, 54.74 55.54, 53.59 56.76 C52.43 57.99, 51.17 59.13, 49.84 60.15 C48.52 61.17, 47.1 62.09, 45.64 62.88 C44.18 63.66, 42.65 64.34, 41.09 64.87 C39.53 65.41, 37.92 65.82, 36.3 66.09 C34.68 66.36, 33.03 66.5, 31.39 66.5 C29.75 66.5, 28.1 66.36, 26.48 66.09 C24.86 65.82, 23.25 65.41, 21.69 64.87 C20.13 64.34, 18.6 63.66, 17.14 62.88 C15.68 62.09, 14.26 61.17, 12.94 60.15 C11.62 59.13, 10.35 57.99, 9.19 56.76 C8.04 55.54, 6.96 54.2, 6 52.79 C5.03 51.39, 4.16 49.89, 3.42 48.35 C2.68 46.8, 2.04 45.17, 1.54 43.53 C1.03 41.88, 0.64 40.16, 0.39 38.45 C0.13 36.74, 0 34.98, 0 33.25 C0 31.52, 0.13 29.76, 0.39 28.05 C0.64 26.34, 1.03 24.62, 1.54 22.98 C2.04 21.33, 2.68 19.7, 3.42 18.16 C4.16 16.61, 5.03 15.11, 6 13.71 C6.96 12.3, 8.04 10.96, 9.19 9.74 C10.35 8.51, 11.62 7.37, 12.94 6.35 C14.26 5.33, 15.68 4.41, 17.14 3.62 C18.6 2.84, 20.13 2.16, 21.69 1.63 C23.25 1.09, 24.86 0.68, 26.48 0.41 C28.1 0.14, 29.75 0, 31.39 0 C33.03 0, 34.68 0.14, 36.3 0.41 C37.92 0.68, 39.53 1.09, 41.09 1.63 C42.65 2.16, 44.18 2.84, 45.64 3.62 C47.1 4.41, 48.52 5.33, 49.84 6.35 C51.17 7.37, 52.43 8.51, 53.59 9.74 C54.74 10.96, 55.82 12.3, 56.79 13.71 C57.75 15.11, 58.62 16.61, 59.36 18.16 C60.1 19.7, 60.74 21.33, 61.24 22.98 C61.75 24.62, 62.14 26.34, 62.39 28.05 C62.65 29.76, 62.72 32.38, 62.78 33.25 C62.85 34.12, 62.85 32.38, 62.78 33.25" stroke="none" stroke-width="0" fill="#0c37a2"></path><path d="M62.78 33.25 C62.78 34.98, 62.65 36.74, 62.39 38.45 C62.14 40.16, 61.75 41.88, 61.24 43.53 C60.74 45.17, 60.1 46.8, 59.36 48.35 C58.62 49.89, 57.75 51.39, 56.79 52.79 C55.82 54.2, 54.74 55.54, 53.59 56.76 C52.43 57.99, 51.17 59.13, 49.84 60.15 C48.52 61.17, 47.1 62.09, 45.64 62.88 C44.18 63.66, 42.65 64.34, 41.09 64.87 C39.53 65.41, 37.92 65.82, 36.3 66.09 C34.68 66.36, 33.03 66.5, 31.39 66.5 C29.75 66.5, 28.1 66.36, 26.48 66.09 C24.86 65.82, 23.25 65.41, 21.69 64.87 C20.13 64.34, 18.6 63.66, 17.14 62.88 C15.68 62.09, 14.26 61.17, 12.94 60.15 C11.62 59.13, 10.35 57.99, 9.19 56.76 C8.04 55.54, 6.96 54.2, 6 52.79 C5.03 51.39, 4.16 49.89, 3.42 48.35 C2.68 46.8, 2.04 45.17, 1.54 43.53 C1.03 41.88, 0.64 40.16, 0.39 38.45 C0.13 36.74, 0 34.98, 0 33.25 C0 31.52, 0.13 29.76, 0.39 28.05 C0.64 26.34, 1.03 24.62, 1.54 22.98 C2.04 21.33, 2.68 19.7, 3.42 18.16 C4.16 16.61, 5.03 15.11, 6 13.71 C6.96 12.3, 8.04 10.96, 9.19 9.74 C10.35 8.51, 11.62 7.37, 12.94 6.35 C14.26 5.33, 15.68 4.41, 17.14 3.62 C18.6 2.84, 20.13 2.16, 21.69 1.63 C23.25 1.09, 24.86 0.68, 26.48 0.41 C28.1 0.14, 29.75 0, 31.39 0 C33.03 0, 34.68 0.14, 36.3 0.41 C37.92 0.68, 39.53 1.09, 41.09 1.63 C42.65 2.16, 44.18 2.84, 45.64 3.62 C47.1 4.41, 48.52 5.33, 49.84 6.35 C51.17 7.37, 52.43 8.51, 53.59 9.74 C54.74 10.96, 55.82 12.3, 56.79 13.71 C57.75 15.11, 58.62 16.61, 59.36 18.16 C60.1 19.7, 60.74 21.33, 61.24 22.98 C61.75 24.62, 62.14 26.34, 62.39 28.05 C62.65 29.76, 62.72 32.38, 62.78 33.25 C62.85 34.12, 62.85 32.38, 62.78 33.25" stroke="#0c37a2" stroke-width="1" fill="none"></path></g><g stroke-linecap="round" transform="translate(10 70.72328676638836) rotate(0 78.89151632165976 49.046057119940414)"><path d="M24.52 0 C57.78 0, 91.03 0, 133.26 0 C149.61 0, 157.78 8.17, 157.78 24.52 C157.78 39.52, 157.78 54.52, 157.78 73.57 C157.78 89.92, 149.61 98.09, 133.26 98.09 C91.03 98.09, 48.81 98.09, 24.52 98.09 C8.17 98.09, 0 89.92, 0 73.57 C0 55, 0 36.43, 0 24.52 C0 8.17, 8.17 0, 24.52 0" stroke="none" stroke-width="0" fill="#0c37a2"></path><path d="M24.52 0 C49.1 0, 73.68 0, 133.26 0 M24.52 0 C52.11 0, 79.7 0, 133.26 0 M133.26 0 C149.61 0, 157.78 8.17, 157.78 24.52 M133.26 0 C149.61 0, 157.78 8.17, 157.78 24.52 M157.78 24.52 C157.78 41.97, 157.78 59.41, 157.78 73.57 M157.78 24.52 C157.78 40.19, 157.78 55.85, 157.78 73.57 M157.78 73.57 C157.78 89.92, 149.61 98.09, 133.26 98.09 M157.78 73.57 C157.78 89.92, 149.61 98.09, 133.26 98.09 M133.26 98.09 C109.05 98.09, 84.84 98.09, 24.52 98.09 M133.26 98.09 C105.87 98.09, 78.48 98.09, 24.52 98.09 M24.52 98.09 C8.17 98.09, 0 89.92, 0 73.57 M24.52 98.09 C8.17 98.09, 0 89.92, 0 73.57 M0 73.57 C0 59.46, 0 45.34, 0 24.52 M0 73.57 C0 54.38, 0 35.2, 0 24.52 M0 24.52 C0 8.17, 8.17 0, 24.52 0 M0 24.52 C0 8.17, 8.17 0, 24.52 0" stroke="#0c37a2" stroke-width="1" fill="none"></path></g><g transform="translate(43.56637345867216 78.29919434483696) rotate(0 44.655189514160156 11.203147602971072)"><text x="44.655189514160156" y="0" font-family="Helvetica, Segoe UI Emoji" font-size="19.605508305199375px" fill="#fff" text-anchor="middle" style="white-space: pre;" direction="ltr" dominant-baseline="text-before-edge">Developer</text></g><g transform="translate(63.02091155925257 99.512347053496) rotate(0 26.220703125 6.65186888926408)"><text x="26.220703125" y="0" font-family="Cascadia, Segoe UI Emoji" font-size="11.203147602971072px" fill="#fff" text-anchor="middle" style="white-space: pre;" direction="ltr" dominant-baseline="text-before-edge">[Person]</text></g><g transform="translate(15.52271139001914 133.7528729465413) rotate(0 73.36880493164062 12.603541053342454)"><text x="73.36880493164062" y="0" font-family="Helvetica, Segoe UI Emoji" font-size="11.20314760297107px" fill="#fff" text-anchor="middle" style="white-space: pre;" direction="ltr" dominant-baseline="text-before-edge">Developer of the DT workflow</text><text x="73.36880493164062" y="12.603541053342454" font-family="Helvetica, Segoe UI Emoji" font-size="11.20314760297107px" fill="#fff" text-anchor="middle" style="white-space: pre;" direction="ltr" dominant-baseline="text-before-edge">(e.g. itwinai)</text></g><g mask="url(#mask-FbCcNyWjgsLOexCdFnCUa)" stroke-linecap="round"><g transform="translate(180.32541668054182 87.31081329108443) rotate(0 122.74842613768203 -0.7024551809242041)"><path d="M0 0 C81.86 -0.47, 163.72 -0.94, 245.5 -1.4" stroke="#495057" stroke-width="1.5" fill="none" stroke-dasharray="8 9"></path></g><g transform="translate(180.32541668054182 87.31081329108443) rotate(0 122.74842613768203 -0.7024551809242041)"><path d="M245.5 -1.4 L231.94 5.01 L231.87 -7.67 L245.5 -1.4" stroke="none" stroke-width="0" fill="#495057" fill-rule="evenodd"></path><path d="M245.5 -1.4 C240.98 0.73, 236.46 2.87, 231.94 5.01 M231.94 5.01 C231.91 0.49, 231.89 -4.04, 231.87 -7.67 M231.87 -7.67 C235.1 -6.18, 238.32 -4.7, 245.5 -1.4 M245.5 -1.4 C245.5 -1.4, 245.5 -1.4, 245.5 -1.4" stroke="#495057" stroke-width="1.5" fill="none"></path></g></g><mask id="mask-FbCcNyWjgsLOexCdFnCUa"><rect x="0" y="0" fill="#fff" width="525.8222689559059" height="188.71572365293284"></rect><rect x="232.35899906822385" y="68.60835811016022" fill="#000" width="141.4296875" height="36" opacity="1"></rect></mask><g transform="translate(232.35899906822385 68.60835811016022) rotate(0 70.71484375 18)"><text x="70.71484375" y="0" font-family="Helvetica, Segoe UI Emoji" font-size="16px" fill="#495057" text-anchor="middle" style="white-space: pre;" direction="ltr" dominant-baseline="text-before-edge">0. Adds changes to </text><text x="70.71484375" y="18" font-family="Helvetica, Segoe UI Emoji" font-size="16px" fill="#495057" text-anchor="middle" style="white-space: pre;" direction="ltr" dominant-baseline="text-before-edge">workflow code</text></g><a href="[[system_containers_diagram]]"><g stroke-linecap="round" transform="translate(565.1705017089844 580.4077005031346) rotate(0 119.5 69.5)"><path d="M0 0 L239 0 L239 139 L0 139" stroke="none" stroke-width="0" fill="#228be6"></path><path d="M0 0 C74.72 0, 149.43 0, 239 0 M0 0 C59.41 0, 118.83 0, 239 0 M239 0 C239 47.48, 239 94.96, 239 139 M239 0 C239 30.26, 239 60.52, 239 139 M239 139 C180.35 139, 121.7 139, 0 139 M239 139 C148.06 139, 57.12 139, 0 139 M0 139 C0 88.89, 0 38.79, 0 0 M0 139 C0 90.08, 0 41.16, 0 0" stroke="#343a40" stroke-width="1" fill="none"></path></g></a><g transform="translate(606.0471133440599 590.817430825079) rotate(0 80.9306640625 16)"><text x="80.9306640625" y="0" font-family="Helvetica, Segoe UI Emoji" font-size="28px" fill="#fff" text-anchor="middle" style="white-space: pre;" direction="ltr" dominant-baseline="text-before-edge">SQAaaS API</text></g><g transform="translate(603.8448959302798 626.5405724697529) rotate(0 80.5 9.5)"><text x="80.5" y="0" font-family="Cascadia, Segoe UI Emoji" font-size="16px" fill="#fff" text-anchor="middle" style="white-space: pre;" direction="ltr" dominant-baseline="text-before-edge">[Software System]</text></g><g transform="translate(569.6891189615196 672.8868544742205) rotate(0 115.03864288330078 18)"><text x="115.03864288330078" y="0" font-family="Helvetica, Segoe UI Emoji" font-size="15.865696957236834px" fill="#fff" text-anchor="middle" style="white-space: pre;" direction="ltr" dominant-baseline="text-before-edge">Performs QA assessments</text><text x="115.03864288330078" y="18" font-family="Helvetica, Segoe UI Emoji" font-size="15.865696957236834px" fill="#fff" text-anchor="middle" style="white-space: pre;" direction="ltr" dominant-baseline="text-before-edge">of research digital objects/assets</text></g><g stroke-linecap="round" transform="translate(430.3792757918434 14.371682131552575) rotate(0 390.14465635395936 221.03601837158203)"><path d="M0 0 C0 0, 0 0, 0 0 M0 0 C0 0, 0 0, 0 0 M-1.39 6.27 C0.86 5.69, 4.4 2.32, 3.57 -0.21 M-0.88 6.96 C1.71 5.44, 2.11 2.83, 5.27 -0.37 M-2.15 10.43 C2.6 10.89, 7.91 4.78, 11.46 -0.74 M0.65 12.61 C4.22 7.02, 7.4 5.43, 11.21 -0.99 M1.27 16.02 C3.02 8.55, 12.76 7.85, 13.84 0.58 M-1.76 18.32 C4.47 14.21, 8.81 5.58, 16.99 1.27 M3.26 21.19 C6.22 16.61, 13.26 9.92, 19.72 2.95 M1.47 23.61 C5.07 17.87, 10.44 13.71, 19.43 -0.67 M2 32.46 C12.08 19.83, 20.29 9.66, 22.91 -1.99 M0.85 31.79 C6.25 26, 11.97 19.81, 26.23 -0.96 M2.67 39.76 C9.96 25.28, 24.6 14.05, 33.6 -1.67 M0.12 35.47 C6.64 27.06, 11.51 22.33, 30.25 -0.05 M-3.55 44.77 C17.21 23.77, 24.69 9.5, 38.86 -2.27 M-0.36 41.77 C10.4 32.65, 22.13 21.2, 37.58 -0.15 M-3.99 49.72 C8.54 36.63, 19.14 20.33, 45.37 -0.18 M-0.29 49.3 C10.68 36.56, 20.5 28.68, 42.08 -0.48 M-2.33 54.56 C13.28 43.45, 27.99 26.88, 47.65 2.47 M-1.63 53.66 C16.81 32.93, 32.99 13.78, 49.36 -0.48 M-2.42 57.56 C10.48 49.53, 20.03 38.81, 54.86 2.3 M-0.59 60.2 C10.46 47.66, 24.35 35.72, 51.28 0.86 M1.85 68.45 C18.73 39.96, 37.07 17.58, 58.98 3.22 M-1.76 65.5 C21.32 39.94, 45.45 13.36, 57.98 1.8 M-1.92 73.27 C16.06 47.11, 33.75 31.17, 61.63 -3.12 M1.14 74.4 C18.07 50.96, 38.39 28.79, 64.35 -1.39 M-1.13 79.05 C13.58 60.98, 32.64 50.37, 66.29 3.22 M0.57 80.96 C13.79 59.24, 32.19 43.37, 70.02 -1.71 M3.94 87.09 C28.27 54.69, 53.18 19.97, 73.02 2.93 M0.96 85.99 C29.2 51.57, 55.69 19.02, 73.89 -0.69 M0.39 93.47 C22.49 70.56, 44.82 41.66, 78.78 1.96 M-1.2 89.81 C24.08 60.64, 52.67 30.3, 78.14 0.44 M-3.27 94.26 C33.56 63.93, 57.07 31.38, 88.1 -3.96 M0.4 97.71 C35.52 58.52, 69.83 21.47, 86.67 1.39 M2.49 106.32 C28.42 69.44, 49.98 43.19, 89.4 3.18 M1.2 104.97 C32.22 63.5, 67.58 27.12, 89.16 -0.38 M-0.31 108.02 C26.28 80.73, 55.1 41.72, 97.7 -3.9 M1.06 109.89 C20.93 82.73, 45.68 54.78, 95.55 -0.89 M0.99 116.47 C36.36 80.88, 66.67 42.09, 98.86 -1.15 M2.12 115.23 C20.92 94.64, 41.59 68.09, 100.01 -0.94 M1.88 124.09 C41.37 71.91, 79.64 27.99, 108.38 3.21 M0.74 121.02 C27.56 88.77, 57.3 58.43, 107.51 -1.35 M-1.18 127.79 C34.1 84.25, 72.22 38.8, 107.59 1.24 M1.41 130.01 C35.89 87.68, 70.49 49.17, 109.75 1.84 M0.74 133.73 C25.74 109.18, 55.57 75.31, 117.81 -1.51 M-0.02 132.69 C38.39 88.31, 76.45 47.41, 115.03 -1.21 M0.6 138.13 C45.35 87.38, 90.47 42.04, 123.81 2.81 M-1.01 140.32 C31.66 102.49, 67.4 63.98, 123.55 -1.06 M1.47 148.42 C34.3 104.64, 59.89 69.6, 125.39 -2.95 M1.47 146.38 C42.79 98.61, 80.91 51.33, 126.67 -0.05 M0.68 151.91 C31.4 118.27, 55.63 89.33, 131.57 0.27 M-0.93 151.46 C52.03 92.76, 102.98 30.48, 132.71 1.09 M0.29 160.44 C42.51 114.56, 85.04 69.52, 136.42 -3.06 M1.17 160.04 C45.63 101.58, 93.67 47.4, 138.94 0.62 M1.87 161.3 C46.89 113.55, 93.18 62.54, 145.83 2.36 M0.18 163.52 C39.19 119.78, 77.05 73.72, 142.77 -0.54 M2.92 172.61 C45.85 113.61, 98.66 49.86, 148.07 -1.72 M-0.12 169.99 C41.43 122.25, 80.39 75.72, 147.93 -1.18 M-0.58 177.07 C49.14 122.45, 92.78 66.95, 151.93 -0.6 M-0.25 176.55 C58.13 115.46, 110.92 55.55, 153.18 0.04 M-1.27 185.62 C43.34 125.74, 94.94 71.99, 158.16 -0.98 M1.21 181.49 C58.79 114.73, 117.87 46.06, 158.64 -0.58 M1.45 186.61 C41.25 140.98, 83.33 93.3, 163.03 -0.42 M-0.18 187.99 C40.99 142.93, 79.16 97.55, 165.26 1.37 M-1.85 196.56 C57.85 125.06, 117.61 59.2, 170.93 0.5 M1.03 195.16 C55.62 132.6, 110.13 69.2, 170.69 0.11 M-2.19 199.03 C63.51 135.17, 125.62 63.64, 177.82 0.85 M-0.59 202.79 C60.91 132.04, 122.91 60.81, 175.55 -1.08 M-2.28 206.19 C73.54 122.85, 140.57 44.07, 177.42 0.98 M0.5 208.35 C72.15 125.79, 142.83 42.55, 179.19 -1.23 M2.03 215.39 C57.68 149.1, 112.89 86.38, 182.76 -1.5 M0.55 212 C55.74 145.96, 110.11 81.03, 185.7 0.86 M-0.46 219.17 C39.85 170.61, 86.48 118.16, 187.71 2.15 M-1.41 219.4 C41.59 172.98, 81.02 124.78, 190.49 -0.52 M2.71 227.28 C66.21 156.34, 125.47 81.19, 195.35 -2.51 M1.23 224.75 C56.43 159.61, 113.99 94.09, 195.77 -0.54 M1.32 234.6 C72.02 142.26, 146.74 54.04, 198.76 2.73 M0.69 230.42 C48.6 170.97, 97.99 113.69, 200.06 -0.11 M1.15 236.12 C66.46 160.09, 132.2 87.13, 207.86 -0.54 M1.22 237.51 C66.87 164.74, 131.34 89.12, 207.3 -0.69 M-0.87 245.59 C56.36 183.97, 104.95 125.06, 213.31 -0.94 M0 245.22 C68.5 161.02, 142.45 77.35, 211.04 0.66 M-2.32 252.28 C68.26 171.53, 136.71 93.23, 218.87 -2.23 M-1.58 250.65 C77.67 158.03, 156.26 67.44, 217.63 -1.2 M0.73 253.77 C80.77 157.55, 166.25 65.96, 222.82 1.53 M0.72 255.58 C73.43 175.72, 146.34 93.22, 222.18 -0.41 M-0.47 264.26 C55.99 194.29, 113.35 133.95, 227.06 0.01 M-0.47 262.21 C48.94 204.48, 98.27 148.42, 228.48 -0.88 M2.29 268.47 C86.39 166.95, 175.76 62.97, 235.3 1.19 M0.07 267.27 C52.25 210.17, 102.48 151.41, 233.77 -0.11 M0.85 272.01 C85.87 182.47, 162.68 91.29, 240.54 0.99 M-0.26 275.04 C59.07 206.36, 118.54 140.85, 236.97 -0.6 M-0.27 281.19 C52.17 222.21, 103 161.26, 242.58 -2.04 M-1.17 280.98 C64.49 209.12, 127.87 135.87, 244.91 -0.72 M1.89 287.12 C88.12 190.85, 167.26 98.59, 248.6 1.52 M-0.76 285.99 C56.24 222.7, 113.18 155.51, 248.64 -0.86 M0.79 294.59 C79.44 201.11, 154.52 113, 256.53 -0.95 M0.76 292.66 C66.39 213.23, 134.05 135.1, 253.73 0.45 M-1.88 298.66 C76.78 211.35, 150.4 127.94, 258.78 2.17 M-0.59 299.29 C91.62 196.88, 178.16 96.59, 258.39 -0.17 M1.05 306.26 C57.42 240.49, 112.06 171.1, 264.41 -0.65 M-0.57 305.38 C64.82 228.38, 129.86 154.45, 264.4 -1.14 M-1.79 309.41 C91.32 208.14, 182.89 102.89, 269.02 0.7 M-0.29 310.31 C86.21 214.86, 171.94 113.97, 270.27 -0.18 M1.51 315.89 C104.58 191.2, 216.49 64.93, 276.96 1.15 M-0.2 316.73 C109.8 189.36, 221 61.86, 275.07 -0.78 M-1.54 321.81 C98.55 210, 196.22 98.67, 281.62 1.72 M0.55 323.54 C94.19 218.71, 185.9 110.81, 280.36 -0.22 M-1.18 329.5 C58.88 260.81, 117.7 195.18, 286.59 0.35 M0.89 328.73 C97.38 216.63, 192.35 109.15, 287.31 -0.72 M1.92 333.97 C85.22 242.51, 171.15 145.2, 290.41 -0.83 M-0.38 334.62 C94.26 230.43, 185.13 126.21, 290.49 0.2 M1.06 343.15 C91.33 232.65, 185.21 124.52, 298.55 -0.45 M0.34 341.77 C66.9 262.41, 135.69 183.91, 297.64 -0.98 M0.15 345.76 C66.22 266.31, 138.49 185.35, 301.54 1.44 M0.33 346.87 C61.37 276.09, 124.45 204.59, 301.27 -0.48 M-1.75 353.51 C95.91 247.27, 186.37 139.66, 306.08 -0.85 M-0.93 354.02 C85.18 254.11, 173.77 152.81, 307.88 0.21 M0.52 358.93 C114.03 232.64, 223.53 106.51, 312.77 -0.63 M1.05 359.37 C110.59 231.91, 219.46 106.28, 312.36 0.02 M1.17 365.16 C76.15 276.07, 152.88 188.4, 317.38 1.26 M0.47 365.9 C86.67 263.14, 174.42 163.03, 318.68 -0.95 M1.42 370.74 C109.55 247.37, 215.56 125.2, 322.17 0.83 M-0.96 372.06 C83.75 273.14, 169.91 175.28, 322.68 0.08 M-0.57 376.39 C107.27 253.5, 215.3 127.58, 329.18 -0.4 M0.5 377.11 C126.71 234.82, 249.91 94.22, 328.2 -1.04 M0.22 384.86 C120.53 246.29, 244.57 103.45, 334.44 1.16 M-0.49 384.31 C89.94 282.51, 180.11 178.62, 333.79 -0.04 M-0.1 390.51 C84.96 287, 172.18 187.64, 338.71 -0.05 M-0.19 390.43 C120.61 255.37, 240.09 117.5, 338.77 -0.47 M-1.19 395.79 C123.2 256.95, 243.97 117.51, 344.25 1.19 M-0.24 396.04 C97.05 284.69, 195.82 171.58, 344.78 -0.19 M-1.36 403.8 C72.23 316.65, 147.17 232.67, 348.9 0.52 M-0.96 402.95 C125.08 256.48, 252.63 110.05, 349.68 -0.32 M-0.53 408.74 C99.1 293.76, 198.59 179.4, 355.89 0.09 M0.37 407.97 C77.97 321.07, 155.18 233.15, 355.66 -0.29 M0.03 415.16 C111.65 284.41, 224.4 151.54, 361.29 -0.96 M0.06 414.25 C135.54 262.52, 267.99 109.84, 359.82 0.75 M0.59 421.69 C103.39 306.38, 202.75 191.44, 367.17 -1.24 M0.47 421.51 C129.43 267.26, 263.7 113.51, 365.63 -0.29 M0.01 427.43 C136.55 266.75, 274.31 106.98, 372.17 0.41 M0.46 426.13 C119.32 290.71, 235.94 157.38, 370.19 -0.08 M-0.81 432.08 C126.56 285, 258.14 135.5, 375.75 -0.2 M0.43 432.57 C84.38 337.58, 170.28 239.84, 376.37 -0.2 M1.44 438.01 C113.6 307.29, 230.13 175.36, 381.54 0.88 M0.9 437.97 C132.83 286.75, 265.42 135.94, 381.68 -0.04 M1.82 442.25 C82.49 350.55, 164.06 260.57, 385.61 1.09 M1.45 443.41 C114.81 315.19, 226.13 186.98, 387.2 -0.09 M7.93 444.09 C137.17 299.17, 263.7 151.28, 392.56 1.6 M6.93 442.41 C161.14 270.31, 313.18 96.89, 391.25 0.36 M13.77 443.8 C130.9 309.95, 248.5 175.47, 397.43 -0.96 M12.45 442.19 C104.42 336.94, 196.55 231.18, 398.3 -0.07 M18.22 441.39 C171.63 271.27, 320.47 99.81, 401.84 -1 M18.57 441.67 C169.74 267.18, 320.41 93.83, 403.09 0.62 M21.95 444.18 C158.14 288.47, 295.76 132.87, 408.6 1.34 M23.29 442.39 C160.4 288.87, 296.55 133.93, 407.49 -0.29 M28.42 442.59 C144.32 305.59, 265.23 165.96, 412.32 0.84 M29.37 441.96 C133.77 326.53, 235.74 207.88, 412.64 0.12 M34.47 442.74 C112.06 353.35, 189.67 264.48, 419.6 -1.81 M33.22 442.83 C148.24 310.35, 262.45 179.26, 418.24 -0.96 M40.99 442.27 C134.26 331.95, 227.98 224.24, 423.62 0.57 M40.21 442.48 C164.84 296.44, 292.91 147.85, 424.22 -0.15 M43.38 443.73 C194.59 266.48, 349.7 90.2, 430.79 0.67 M43.94 442.26 C178.86 288.55, 309.43 139.14, 430.08 -0.75 M48.72 443.14 C138.86 338.73, 230.72 233.21, 435.28 -0.29 M49.6 442.36 C166.86 310.12, 281.67 177.37, 434.96 0.72 M56.61 443.48 C207.81 266.54, 361.45 91.28, 439.27 -0.81 M54.79 442.61 C182.54 295.58, 314.02 145.68, 440.17 0.03 M59.63 443.95 C154.51 332.64, 245.7 227.03, 446.72 1.53 M59.46 443.05 C168.92 319.83, 274.96 199.99, 444.45 0.38 M65.97 443.25 C197.56 286.92, 329.49 130.76, 451.61 -1.36 M65.98 442.54 C199.9 292.97, 332.87 139.34, 451.34 -0.57 M70.82 442.87 C195.69 295.16, 322.9 148.92, 457.28 1.36 M71.33 443.68 C207.22 289.73, 345.07 132.9, 456.36 -0.33 M76 442.78 C198.87 297.75, 324.23 153.2, 461.49 -0.78 M76.95 442.26 C152.85 350.87, 230.92 260.63, 460.86 0.24 M80.5 442.07 C182.91 328.48, 283.29 211.61, 466.18 -0.54 M80.83 442.39 C169.09 342.45, 257.98 239.05, 467.18 -0.67 M87.94 443.51 C199.57 309.33, 313.45 178.65, 471.44 0.37 M86.4 441.95 C221.99 287.54, 358.6 130.53, 471 1.14 M90.67 441.43 C211.03 305.15, 329.73 167.71, 475.76 0.96 M91.47 442.92 C244.17 268.9, 397.07 93.47, 477.45 0.09 M96.5 442.2 C225.24 292.08, 356.88 139.58, 482.65 0.99 M97.08 443.3 C187.96 337.08, 278.06 233.99, 482.04 0.13 M103.19 442.55 C206.8 327.45, 306.91 211.88, 488.24 -0.08 M102.83 442.57 C229.38 299.51, 354.27 154.89, 486.97 -0.59 M109.12 443.68 C206.05 338.79, 298.95 231.08, 494.23 0.72 M107.78 443.2 C210.23 328.3, 310.42 213.12, 493.16 0.59 M113.45 442.33 C189.92 350.82, 270.33 259.48, 499.35 -1.53 M113.73 443.37 C226.7 314.82, 340.23 185.32, 497.99 -0.5 M120.34 441.7 C232.44 310.66, 345.53 182.89, 502.68 0.16 M118.15 443.24 C217.91 326.02, 318.29 209.2, 503.41 0.31 M123.13 442.55 C248.76 294.37, 375.53 148.87, 507.93 0.46 M123.84 442.51 C266.03 283.92, 407.74 123.47, 508.81 -0.66 M130.97 441.31 C239.14 316.45, 347.44 190.69, 513.97 1.6 M128.69 441.81 C224.24 329.32, 321.31 216.89, 514.33 0.23 M133.8 443.53 C264.99 297.59, 390.78 151.12, 519.1 -1.35 M133.7 443.53 C214.74 352.82, 293.76 263.34, 520.18 -0.57 M138.55 442.85 C265.31 299.85, 390.38 156.03, 524.38 -0.57 M140.75 442.01 C230.07 337.24, 322.72 230.35, 525.09 -0.35 M143.75 444.05 C234.46 343.99, 319.67 242.44, 531.49 0.26 M144.66 443.52 C248.42 323.78, 350.79 206.79, 530.49 0.24 M150.11 441.97 C234.07 348.4, 318.35 251.05, 536.48 -0.63 M150.12 442.11 C232.53 342.35, 318.04 244.89, 535.71 -0.59 M154.35 441.4 C281.35 301.27, 402.47 160.39, 540.43 -1.74 M155.75 442.72 C306.29 266.19, 459.86 89.72, 540.59 -1.02 M159.78 442.41 C269.69 314.82, 377.48 192.35, 546.37 -0.81 M161.45 441.92 C316.76 268.8, 470.09 93.65, 545.46 0.28 M166.89 444.19 C252.52 339.95, 341.36 236.66, 550.76 0.08 M166.85 442.93 C259.41 336.39, 354.42 227.99, 552.17 -0.78 M171.19 443.22 C303.54 290.29, 434.43 140.57, 556.42 1.59 M172.25 442.8 C305.23 287.34, 441.12 130.94, 556.07 -0.18 M176.15 443.5 C284.31 319.06, 396.76 191.38, 560.79 -1.13 M177.08 442.68 C272.89 339.24, 366.05 232.72, 561.39 -0.32 M180.81 442.69 C307.54 305.4, 430.99 161.33, 565.7 1.37 M181.8 443.64 C286.12 320.73, 392.39 198.63, 566.91 0.31 M186.4 441.74 C308.86 302.24, 428.36 161.61, 571.97 -0.93 M188.01 442.06 C273.87 346.67, 358.1 250.71, 573.25 -0.98 M193.38 441.77 C288.74 328.11, 387.54 217.79, 576.41 1.43 M192.2 442.57 C326.46 289.73, 457.85 138.38, 578.19 0.8 M198.63 443 C299.84 329.53, 397.35 217.18, 581.77 1.19 M198.86 442.71 C352.13 270.58, 504.71 96.14, 583.33 -0.2 M201.98 442.15 C311.38 319.59, 420.01 196.06, 587.41 -0.04 M202.87 443.18 C323.19 301.54, 447.23 160.65, 587.81 0.27 M207.31 443.47 C348.78 287.49, 485.13 131.83, 592.72 -1.24 M208.1 443.02 C361.83 266.06, 513.34 92.5, 593.25 0.69 M213.04 443.29 C306.55 334.85, 404.27 222.45, 597.49 0.06 M213.08 443.43 C358.55 279.2, 503.72 112.8, 599.26 -0.74 M219.62 441.05 C356.84 286.61, 492.28 131.9, 605.29 -1.12 M219.87 442.93 C310.68 339.26, 397.54 239.07, 603.49 0.96 M223.28 443.11 C347.16 303.95, 469.53 162.67, 608.52 0.11 M224.59 442.83 C323.16 325.86, 425.68 208.69, 608.94 -0.14 M229.85 441.73 C354.22 302.82, 475.95 163.95, 614.13 -0.01 M229.52 442.33 C344.71 309.9, 457.5 179.18, 614.46 0.66 M235.74 444.48 C362.26 294.66, 491.24 147.06, 619.1 0.22 M235.19 442.44 C364.03 291.16, 496.48 139.18, 620.46 -0.68 M241.77 443.62 C394.05 266.71, 547.5 88.58, 626.56 -0.95 M241.29 442.66 C391.32 264.35, 544.94 87.74, 625.8 -0.19 M246.94 442.33 C352.82 323.11, 454.44 204.08, 630.89 -1.01 M245.14 443.29 C380.8 284.08, 517.08 126.28, 630.29 -0.39 M252.67 443.3 C353.91 319.25, 459.28 198.33, 637.01 1.09 M250.65 442.11 C376.48 295.07, 502.91 148.51, 636.4 -0.01 M256.52 442.91 C410.87 271.19, 562.82 95.44, 642.28 -0.1 M257.13 443.13 C348.71 340.23, 438.62 236.01, 642.16 -0.51 M262.91 442.27 C379.82 300.06, 500.44 162.47, 646.21 0.06 M261.91 442.03 C365.95 317.35, 473.65 193.94, 646.03 -0.51 M267.21 441.37 C374.21 316.93, 485.83 189.54, 651.54 -1.45 M266.72 442.89 C390.11 297.89, 514.23 154.59, 652.64 -0.76 M272.79 443.72 C347.34 353.76, 426.11 262.04, 657.99 1.22 M272.26 442.09 C359.05 347.17, 444.04 250, 656.87 -0.2 M278.43 444.15 C370.79 339.66, 461.49 236.83, 663.26 -1.36 M278.28 443.42 C406.74 290.29, 538.11 138.19, 662.35 -0.89 M282.49 442.96 C410.74 295.31, 535.28 152.13, 666.47 -1.31 M282.91 441.94 C410.91 299.47, 537.7 152.71, 667.17 0.72 M289.51 443.39 C373.73 343.87, 459.85 246.2, 672.32 -0.84 M287.48 442.34 C368.84 347.88, 452.42 252.74, 672.77 -0.73 M294.62 444.13 C432.85 279.83, 578.62 115.29, 678.49 1.13 M293.68 443.53 C436.79 277.22, 580.8 111.93, 677.63 0.41 M299.69 442.55 C431.94 285.6, 567.65 127.89, 683.09 0.81 M298.82 442.01 C396.97 333.17, 494.85 220.23, 684.61 -0.13 M304.07 444.41 C437.38 286.39, 571.89 133.04, 687.98 -0.31 M304 443.28 C423.12 305.83, 546.02 165.54, 688.2 0.2 M308.1 443.56 C393.33 343.78, 477.3 243.31, 693.46 -0.42 M309.63 443.16 C454.61 280.82, 597.57 117.94, 694.66 -0.59 M313.28 441.76 C453.1 284.25, 590.3 122.82, 698.37 0 M313.8 443.04 C435.49 307.73, 555.72 169.79, 699.68 -0.26 M320.15 443.67 C452.2 288.61, 582.78 137.53, 703.74 0.33 M319.72 443.24 C420.45 325.18, 521.94 209.65, 704.67 0.27 M325.22 441.48 C406.5 348.6, 487.1 254.37, 709.79 -0.18 M324.5 442.25 C440.18 307.34, 556.51 171.33, 710.51 0.26 M331.59 441.84 C455.55 299.12, 584.06 153.23, 716.14 0.93 M331.33 442.88 C415.91 340.08, 502.87 239.7, 716.03 0.94 M336.37 444.15 C423.05 338.37, 512.63 234.47, 722.26 -1.41 M335.16 443.49 C432.01 334.93, 525.95 228.65, 721.59 -0.28 M341.25 441.89 C461.51 304.46, 580.11 169.31, 724.37 0.04 M341.17 442.63 C479.39 289.97, 613.76 133.65, 725.82 0.51 M346.31 442.47 C440.7 338.76, 533.18 230.94, 732.52 0.65 M345.71 442.92 C446.86 329.17, 546.03 213.19, 731.46 -0.78 M351.04 442.99 C465.43 313.85, 580.85 182.82, 735.51 0.46 M351.58 443 C473.1 302.02, 597.44 159.15, 735.79 0.47 M357.72 443.65 C495.57 281.99, 637.56 116.53, 743.59 -0.75 M356.92 443.02 C464.08 316.8, 574.03 190.22, 742.74 -0.16 M362.81 442.76 C454.41 338.99, 545.47 231.58, 746.95 0.28 M362.55 442.88 C447.88 347.84, 531.99 252.52, 746.97 0.66 M366.78 443.76 C464.61 329.98, 562.07 218.83, 752.01 -1.07 M367.22 443.02 C458.64 337.06, 552.42 229.12, 752.45 -0.6 M371.88 443.77 C512.15 279.19, 653.92 115.15, 759.16 -0.7 M373.35 442.66 C485.99 307.35, 601.37 174.35, 758.05 0.87 M379.17 443.82 C465.35 336.14, 555.53 234.46, 763.81 -0.45 M379.08 442.12 C477.89 329.36, 575.46 216.76, 763.31 0.45 M383.09 443.85 C477 336.06, 567.68 229.4, 769.33 -1 M384.05 442.72 C474.55 336.47, 567.74 229.32, 768.53 0.84 M387.67 443.31 C530.65 282.68, 672.21 118.93, 775.31 -0.56 M389.42 442.66 C472.64 343.34, 559.87 243.23, 774.06 -0.89 M394.75 442.55 C504.34 314.74, 616.88 182.57, 777.72 -0.61 M394.01 441.76 C513.5 308.64, 629.54 175.44, 778.79 0.26 M400.95 443.43 C477.91 347.92, 559.8 256.56, 781.35 3.94 M399.21 442.13 C499.65 328.78, 600.08 214.33, 779.7 4.73 M404.45 441.86 C514.51 310.87, 627.32 183.16, 781.75 9.53 M404.38 442.42 C524.54 304.02, 646.42 163.51, 780.87 10.93 M411.61 443.87 C490.9 349.98, 572.32 259.68, 779.96 16.29 M410.28 442.77 C505.94 332.19, 603.8 218.19, 780.97 16.44 M414.83 443.24 C531.08 309.88, 646.72 176.4, 779.75 23.75 M415.91 443.39 C546.19 287.35, 679.95 135.18, 779.92 23.4 M421.71 442.84 C551.88 292.35, 679.82 143.77, 779.46 29.96 M420.49 441.96 C540.56 307.92, 659.03 172.49, 780.28 29.8 M426.45 442.47 C542.13 309.4, 656.85 178.17, 778.77 36.8 M425.05 442.39 C513.02 340.28, 602.19 237.96, 779.51 34.84 M430.05 443.41 C543 314.2, 655.29 188.5, 778.98 40.48 M431.78 441.85 C545.29 308.51, 661.3 173.84, 779.76 40.73 M437.26 442.69 C574.46 288.63, 709.62 132.84, 780 47.56 M436.13 442.74 C512.29 351.87, 589.77 263.11, 779.93 48.03 M441.69 444.01 C528.47 337.05, 619.58 236.63, 780.75 54.7 M442.11 442.93 C566.29 300.6, 688.84 160.05, 780.82 53.09 M448.28 442.37 C553.28 321.82, 656.69 203.3, 779.35 58.88 M446.36 442.91 C549.21 321.38, 651.6 203.27, 780.34 59.97 M452.01 441.5 C549.63 334.1, 644.93 223.74, 779.86 65.93 M451.91 442.44 C549.78 335.81, 644.02 226.2, 780.25 66.67 M457.22 441.59 C579.95 308.37, 698.64 172.6, 779.7 71.36 M456.97 442.9 C563.63 321.41, 668.62 200.43, 779.8 71.66 M462.66 444.21 C590.12 296.96, 712.92 154.48, 779.59 76.39 M464.1 442.35 C585.07 304.99, 704.58 165.69, 780.9 77.25 M468.14 442.29 C579.56 313.26, 690.03 183.73, 780.69 84.15 M468.54 442.67 C557.98 339.83, 649.16 236.91, 779.83 84.05 M475.54 442.5 C555.52 352.75, 637.24 260.02, 781.48 89.42 M474.29 443.12 C565.16 335.25, 657.92 229.23, 781.24 89.38 M478.52 441.42 C597.56 309.87, 713.32 179.67, 781.22 95.27 M479.11 442.07 C543.98 369.06, 606.4 295.53, 780.77 97.21 M485.1 441.76 C576.86 335.58, 667.93 230.01, 780.42 102.69 M483.74 443.32 C576.63 342.75, 666.39 239.27, 781.2 102 M489.03 441.23 C567.64 356.55, 639.31 268.84, 781.84 109.82 M489.23 442.87 C572.12 349.83, 655.92 255.14, 780.31 108.67 M496.57 442.85 C566.87 358.45, 640.08 272.68, 782.15 115.36 M495.16 443.14 C563.19 365.05, 629.72 289.26, 779.76 113.69 M500.39 442.57 C582.15 348.27, 661.73 254.73, 780.86 122.23 M500.71 442.95 C587.83 341.71, 676.13 239.86, 780.64 120.07 M507.72 440.41 C589.22 346.91, 675.93 246.69, 780.09 125.21 M506.58 442.77 C599.77 332.69, 691.5 228.4, 780.45 127.66 M508.94 444.36 C591.67 347.34, 675.17 253.41, 781.27 131.42 M510.33 441.89 C589.65 356.92, 665.09 267.81, 779.86 132.4 M515.62 443.89 C616.36 326.19, 719.14 206.45, 781.7 138.53 M516.75 442.39 C582.42 368.63, 646.76 292.98, 779.62 138.6 M519.31 443.11 C584.95 372.67, 646.66 304.79, 781.98 143.25 M522.35 443.7 C621.84 330.32, 719.74 217.78, 781.52 144.52 M525.47 444.3 C613.74 343.66, 698.53 243.51, 779.46 149.13 M527.13 442.89 C576.31 388, 627.33 327.82, 781.29 152.01 M532.15 442.06 C604.27 351.48, 684.76 266.28, 780.83 158.41 M531.08 443.48 C628.52 337.66, 718.99 232.5, 780.82 158.11 M535.53 440.96 C611.05 364.42, 679.71 282.68, 779.8 161.15 M537.97 442.84 C590.91 382.76, 642.48 321.74, 780.03 163.66 M542.96 442.72 C611.66 369.51, 671.84 294.66, 782.24 167.87 M543.7 442.83 C598.43 376.96, 656.75 311.79, 780.52 170.16 M546.53 443.52 C618.28 364.25, 686.66 285.59, 779.92 177.11 M548.7 443 C617.42 364.24, 690.6 280.46, 781.06 176.12 M551.5 444.43 C631.1 344.56, 712.01 254.71, 778.55 182.06 M554.32 443.63 C631.34 350.35, 708.27 261.2, 780.46 182.21 M559.87 443.9 C621.05 372.14, 680.44 298.61, 781.03 187.48 M558.17 443.31 C619.7 365.72, 685.99 290.47, 780.59 187.78 M562.83 443.8 C640.73 357.67, 711.78 273.48, 777.8 193.37 M562.92 442.49 C619.84 383.89, 674.74 323.35, 779.94 192.35 M571.46 441.1 C637.45 360.8, 705.63 283.43, 780.86 198.37 M569.31 443.58 C650.67 352.26, 728.59 261.82, 780.52 199.83 M577 439.9 C624.96 382.65, 677.71 322.66, 777.85 207.3 M573.88 443.91 C635.85 373.08, 695.1 303.38, 779.67 206.83 M582.11 442.87 C652.55 355.18, 731.19 267.8, 780.19 210.95 M578.4 443.53 C650.77 364.23, 723.77 281.35, 779.52 213.2 M587.95 440.74 C635.26 378.15, 690.79 311.1, 781.23 216.41 M585 441.21 C629.53 388, 671.8 337.54, 781.37 218.78 M592.62 443.37 C651.21 376.86, 714.73 305.39, 780.52 222.9 M591.69 442.71 C632.59 396.02, 674.82 349.04, 781.43 224.97 M594.55 440.47 C650.69 384.29, 704.28 321.75, 780.5 231.37 M595.33 441.89 C665.3 359.41, 740.52 275.07, 781.53 230.02 M603.69 445.34 C656.18 377.35, 712.03 310.57, 783.39 234.82 M599.43 443.66 C665.76 366.2, 730.16 292.84, 779.86 234.79 M608.1 442.02 C648.69 390.67, 699.71 342.87, 777.38 244.94 M605.46 441.81 C663.52 373.82, 719.44 308.02, 781.95 241.89 M609.53 442.5 C650.92 396.43, 695.04 345.81, 783.25 251.55 M611.39 442.71 C668.76 376.98, 728.56 308.91, 781.41 249.37 M615.07 445.67 C662.28 390.23, 707.55 337.48, 781.01 251.42 M617.84 442.65 C676.81 376.94, 732.83 309.66, 780.66 254.95 M623.28 444.51 C673.4 384.49, 719.07 328.32, 782.24 259.85 M620.6 442.24 C676.91 376.77, 738.26 310.45, 780.82 260.59 M626.89 441.77 C675.54 388.77, 722.82 334.11, 781.26 268.28 M626.87 442.84 C686.56 370.91, 749.19 299.99, 780.61 266.33 M632.17 445.43 C690.44 378.7, 742 315.23, 780.47 271.36 M631.22 441.44 C688.69 377.78, 745.26 312.18, 782.08 271.88 M634.75 444.84 C677.75 396.96, 720.79 348.81, 779.69 277.87 M637.88 444.73 C686.95 380.6, 738.62 322.45, 779.34 280.43 M642.77 442.25 C679.2 396.2, 718.23 359.84, 778.63 288.08 M642.78 442.79 C694.37 387.14, 741.43 329.43, 781.71 286.14 M644.88 443.94 C678.48 408.62, 701.12 379.55, 779.93 290.48 M650.06 441.33 C694.82 387.89, 743.07 333.74, 781.67 292.51 M655.06 442.8 C690.74 398.19, 727.25 354.47, 776.89 293.88 M652.93 441.59 C685.28 407.78, 713.95 372.63, 781.45 295.46 M662.16 440.37 C704.61 392.85, 745.85 342.98, 783.97 301.79 M658.62 441.82 C698.12 399.54, 732.2 359.88, 781.8 303.31 M668.63 444.93 C691.91 410.32, 722.34 372.47, 783.69 306.42 M665.22 444.19 C712.45 393.9, 753.75 341.83, 780.57 311 M668.68 439.44 C708.58 402.17, 752.26 357.31, 778.07 318.35 M668.61 444.57 C698.79 410.24, 726.47 377.89, 779.33 316.57 M674.61 442.09 C702.3 410.09, 727.75 379.5, 784.16 323.2 M677.23 441.07 C708.76 401.85, 741.7 364.39, 778.79 322.32 M677.1 442.86 C715.36 398.88, 747.23 366.16, 780.12 326.81 M679.97 442.8 C717.23 401.07, 752.56 360.55, 780.71 328.27 M687.93 440 C716.95 405.89, 752.58 371.84, 777.47 331.84 M684.78 442.59 C705.59 421.54, 728.28 395.25, 779.82 332.95 M692.25 440.51 C720.46 411.31, 754.85 370.84, 783.18 342.92 M690.57 441.79 C709.93 417.69, 732.66 391.65, 781.72 338.88 M699.31 440.66 C715.25 422.6, 732.74 399.59, 779.2 347.45 M697.8 442.97 C725.62 406.35, 754.01 372.51, 782.14 345.56 M702.71 442.49 C720.19 418.08, 744.09 396.02, 782 352.39 M700.4 442.7 C720.41 422.94, 736.98 402.12, 782.24 350.51 M707.18 442.3 C734.57 409.53, 765.34 380.63, 780.66 357.41 M708.34 444.3 C728.34 414.53, 751.11 391.21, 782.39 358.69 M712.8 439.17 C740.64 411.79, 760.72 381.94, 777.13 363.48 M711.59 442.58 C733.57 417.37, 758.6 390.97, 782.28 363.37 M717.75 439.41 C734.57 417.21, 754.91 396.12, 780.29 370.06 M718.6 440.57 C741.87 414.48, 762.19 388.32, 778.65 371.5 M726.59 441.15 C738.64 425.67, 747.33 414.84, 777.52 379.91 M724.36 442.32 C738.51 425.38, 752.68 407.22, 780.66 376.82 M728.98 438.74 C746.51 421.29, 758.46 410.95, 778.21 379.78 M728.87 441.62 C742.18 429.37, 753.34 414.61, 781.11 384.78 M731.92 439.31 C745.41 428.26, 758.74 421.19, 783.86 385.69 M733.11 442.73 C748.13 426.46, 760.27 410.48, 782.31 390.08 M738.54 443.26 C752.1 431.57, 759.99 419.13, 780.34 395.43 M737.58 441.18 C748.63 433.12, 758.15 422.03, 780.09 393.43 M740.34 444.76 C756.75 424.85, 768.93 407.17, 779.95 401.8 M742.31 444.47 C752.06 431.28, 761.23 421.37, 781.62 403.01 M751.91 444.22 C756.06 434.82, 771.85 417.48, 777 405.36 M749.3 440.84 C758.92 433.82, 767.42 421.67, 780.71 407.49 M755.2 440.86 C760.4 435.76, 770.64 424.02, 783.31 411.22 M754.58 444.06 C765.49 431.09, 773.98 421.58, 781.09 413.07 M757.61 445.86 C764.57 432.04, 771.6 429.97, 782.28 418.2 M758.04 442.84 C765.69 439.63, 767.15 431.74, 782.23 420.89 M763.55 439.22 C773.51 434.31, 775.24 435.57, 777.21 427.44 M766.69 441.92 C769.58 438.28, 774.79 433.04, 779.38 423.86 M770.01 445.57 C773.82 440.14, 774.94 433.97, 778.04 431.6 M770.03 443.02 C772.53 439.94, 777.59 435.01, 781.05 432.04 M776.04 441.61 C776.16 440.55, 778.9 438.3, 779.43 436.69 M776.48 442.53 C777.75 441, 778.7 440.01, 781.01 437.62" stroke="#ced4da" stroke-width="0.5" fill="none"></path><path d="M1.4 0.65 C286.19 -4.51, 571.32 -5.41, 779.42 -0.77 M781.75 -0.74 C781.84 141.15, 781.7 279.86, 778.52 441.84 M781.51 441.98 C486.55 441.69, 194.77 442.35, -1.51 440.85 M-1.16 443.69 C-2.49 326.17, -2.17 210.76, 1.23 -0.1" stroke="#343a40" stroke-width="1.5" fill="none" stroke-dasharray="8 9"></path></g><g transform="translate(457.24938234454316 396.40444176586016) rotate(0 56.66235681324201 20.93680306974389)"><text x="0" y="0" font-family="Helvetica, Segoe UI Emoji" font-size="36.411831425641566px" fill="#343a40" text-anchor="start" style="white-space: pre;" direction="ltr" dominant-baseline="text-before-edge">GitHub</text></g><g stroke-linecap="round" transform="translate(568.6705017089844 26.657700503134606) rotate(0 119.5 69.5)"><path d="M0 0 L239 0 L239 139 L0 139" stroke="none" stroke-width="0" fill="#868e96"></path><path d="M0 0 C83.72 0, 167.45 0, 239 0 M0 0 C65.05 0, 130.11 0, 239 0 M239 0 C239 52.02, 239 104.04, 239 139 M239 0 C239 37.91, 239 75.82, 239 139 M239 139 C186.22 139, 133.44 139, 0 139 M239 139 C154.79 139, 70.58 139, 0 139 M0 139 C0 109.15, 0 79.3, 0 0 M0 139 C0 110.26, 0 81.51, 0 0" stroke="#000000" stroke-width="1" fill="none"></path></g><g transform="translate(651.4772677602346 38.646252809290104) rotate(0 43.572265625 16)"><text x="43.572265625" y="0" font-family="Helvetica, Segoe UI Emoji" font-size="28px" fill="#fff" text-anchor="middle" style="white-space: pre;" direction="ltr" dominant-baseline="text-before-edge">GitHub</text></g><g transform="translate(610.4672546386719 72.81463714864242) rotate(0 79.6875 9.5)"><text x="79.6875" y="0" font-family="Cascadia, Segoe UI Emoji" font-size="16px" fill="#fff" text-anchor="middle" style="white-space: pre;" direction="ltr" dominant-baseline="text-before-edge">[Software System]</text></g><g transform="translate(611.7530670166016 106.31132599141586) rotate(0 77.57392883300781 27)"><text x="77.57392883300781" y="0" font-family="Helvetica, Segoe UI Emoji" font-size="15.865696957236834px" fill="#fff" text-anchor="middle" style="white-space: pre;" direction="ltr" dominant-baseline="text-before-edge">Source code platform </text><text x="77.57392883300781" y="18" font-family="Helvetica, Segoe UI Emoji" font-size="15.865696957236834px" fill="#fff" text-anchor="middle" style="white-space: pre;" direction="ltr" dominant-baseline="text-before-edge">integrated with CI/CD</text><text x="77.57392883300781" y="36" font-family="Helvetica, Segoe UI Emoji" font-size="15.865696957236834px" fill="#fff" text-anchor="middle" style="white-space: pre;" direction="ltr" dominant-baseline="text-before-edge">technologies</text></g><a href="[[system_containers_diagram]]"><g stroke-linecap="round" transform="translate(564.6705017089844 252.1577005031346) rotate(0 119.5 69.5)"><path d="M0 0 L239 0 L239 139 L0 139" stroke="none" stroke-width="0" fill="#228be6"></path><path d="M0 0 C78.55 0, 157.09 0, 239 0 M0 0 C80.49 0, 160.98 0, 239 0 M239 0 C239 37.08, 239 74.16, 239 139 M239 0 C239 53.15, 239 106.29, 239 139 M239 139 C168.75 139, 98.5 139, 0 139 M239 139 C187.68 139, 136.37 139, 0 139 M0 139 C0 83.54, 0 28.09, 0 0 M0 139 C0 105.55, 0 72.1, 0 0" stroke="#343a40" stroke-width="1" fill="none"></path></g></a><g transform="translate(588.1086367815597 266.13885939650754) rotate(0 98.369140625 11.428571428571416)"><text x="98.369140625" y="0" font-family="Helvetica, Segoe UI Emoji" font-size="20px" fill="#fff" text-anchor="middle" style="white-space: pre;" direction="ltr" dominant-baseline="text-before-edge">GH action: QA assess</text></g><g transform="translate(603.3448959302796 298.2905724697529) rotate(0 80.5 9.5)"><text x="80.5" y="0" font-family="Cascadia, Segoe UI Emoji" font-size="16px" fill="#fff" text-anchor="middle" style="white-space: pre;" direction="ltr" dominant-baseline="text-before-edge">[Software System]</text></g><g transform="translate(582.8570266763636 344.6368544742205) rotate(0 101.37073516845703 18)"><text x="101.37073516845703" y="0" font-family="Helvetica, Segoe UI Emoji" font-size="15.865696957236834px" fill="#fff" text-anchor="middle" style="white-space: pre;" direction="ltr" dominant-baseline="text-before-edge">GitHub action that triggers</text><text x="101.37073516845703" y="18" font-family="Helvetica, Segoe UI Emoji" font-size="15.865696957236834px" fill="#fff" text-anchor="middle" style="white-space: pre;" direction="ltr" dominant-baseline="text-before-edge">source code QA assessment</text></g><a href="[[system_containers_diagram]]"><g stroke-linecap="round" transform="translate(945.6705017089844 256.1577005031346) rotate(0 119.5 69.5)"><path d="M0 0 L239 0 L239 139 L0 139" stroke="none" stroke-width="0" fill="#228be6"></path><path d="M0 0 C85.16 0, 170.31 0, 239 0 M0 0 C85.66 0, 171.32 0, 239 0 M239 0 C239 51.33, 239 102.66, 239 139 M239 0 C239 50.93, 239 101.85, 239 139 M239 139 C159.76 139, 80.51 139, 0 139 M239 139 C149.34 139, 59.68 139, 0 139 M0 139 C0 97.86, 0 56.72, 0 0 M0 139 C0 96.97, 0 54.93, 0 0" stroke="#343a40" stroke-width="1" fill="none"></path></g></a><g transform="translate(981.3303164690597 271.13885939650754) rotate(0 86.1474609375 11.428571428571416)"><text x="86.1474609375" y="0" font-family="Helvetica, Segoe UI Emoji" font-size="20px" fill="#fff" text-anchor="middle" style="white-space: pre;" direction="ltr" dominant-baseline="text-before-edge">GH action: QA step</text></g><g transform="translate(984.3448959302796 302.2905724697529) rotate(0 80.5 9.5)"><text x="80.5" y="0" font-family="Cascadia, Segoe UI Emoji" font-size="16px" fill="#fff" text-anchor="middle" style="white-space: pre;" direction="ltr" dominant-baseline="text-before-edge">[Software System]</text></g><g transform="translate(951.0719085733363 338.6368544742205) rotate(0 114.15585327148438 27)"><text x="114.15585327148438" y="0" font-family="Helvetica, Segoe UI Emoji" font-size="15.865696957236834px" fill="#fff" text-anchor="middle" style="white-space: pre;" direction="ltr" dominant-baseline="text-before-edge">Github action that allows custom</text><text x="114.15585327148438" y="18" font-family="Helvetica, Segoe UI Emoji" font-size="15.865696957236834px" fill="#fff" text-anchor="middle" style="white-space: pre;" direction="ltr" dominant-baseline="text-before-edge">definitions (e.g. unit tests) of a </text><text x="114.15585327148438" y="36" font-family="Helvetica, Segoe UI Emoji" font-size="15.865696957236834px" fill="#fff" text-anchor="middle" style="white-space: pre;" direction="ltr" dominant-baseline="text-before-edge">QA step within the assessment</text></g><g mask="url(#mask-k6NKhaVH_cd2cAb2B3tVf)" stroke-linecap="round"><g transform="translate(811.3254166805418 323.9077005031346) rotate(0 65.84508502844255 -1)"><path d="M0 0 C33.31 -0.51, 66.62 -1.01, 131.69 -2" stroke="#495057" stroke-width="1.5" fill="none" stroke-dasharray="8 9"></path></g><g transform="translate(811.3254166805418 323.9077005031346) rotate(0 65.84508502844255 -1)"><path d="M131.69 -2 L118.19 4.54 L118 -8.13 L131.69 -2" stroke="none" stroke-width="0" fill="#495057" fill-rule="evenodd"></path><path d="M131.69 -2 C128.28 -0.34, 124.86 1.31, 118.19 4.54 M118.19 4.54 C118.13 0.59, 118.07 -3.37, 118 -8.13 M118 -8.13 C120.82 -6.87, 123.65 -5.6, 131.69 -2 M131.69 -2 C131.69 -2, 131.69 -2, 131.69 -2" stroke="#495057" stroke-width="1.5" fill="none"></path></g></g><mask id="mask-k6NKhaVH_cd2cAb2B3tVf"><rect x="0" y="0" fill="#fff" width="1043.015586737427" height="425.9077005031346"></rect><rect x="829.5845642089844" y="304.9077005031346" fill="#000" width="95.171875" height="36" opacity="1"></rect></mask><g transform="translate(829.5845642089844 304.9077005031346) rotate(0 47.5859375 18)"><text x="47.5859375" y="0" font-family="Helvetica, Segoe UI Emoji" font-size="16px" fill="#495057" text-anchor="middle" style="white-space: pre;" direction="ltr" dominant-baseline="text-before-edge">1.1 uses step</text><text x="47.5859375" y="18" font-family="Helvetica, Segoe UI Emoji" font-size="16px" fill="#495057" text-anchor="middle" style="white-space: pre;" direction="ltr" dominant-baseline="text-before-edge">definition</text></g><g mask="url(#mask-_AMQxt7JvY1eDC1l5LQxp)" stroke-linecap="round"><g transform="translate(680.3254166805418 181.4077005031346) rotate(0 0 31.5)"><path d="M0 0 C0 23.48, 0 46.96, 0 63" stroke="#495057" stroke-width="1.5" fill="none" stroke-dasharray="8 9"></path></g><g transform="translate(680.3254166805418 181.4077005031346) rotate(0 0 31.5)"><path d="M0 63 L-6.34 49.41 L6.34 49.41 L0 63" stroke="none" stroke-width="0" fill="#495057" fill-rule="evenodd"></path><path d="M0 63 C-2.36 57.93, -4.73 52.87, -6.34 49.41 M-6.34 49.41 C-3.44 49.41, -0.54 49.41, 6.34 49.41 M6.34 49.41 C4.01 54.41, 1.67 59.42, 0 63 M0 63 C0 63, 0 63, 0 63" stroke="#495057" stroke-width="1.5" fill="none"></path></g></g><mask id="mask-_AMQxt7JvY1eDC1l5LQxp"><rect x="0" y="0" fill="#fff" width="780.3254166805418" height="344.4077005031346"></rect><rect x="606.9621354305418" y="203.9077005031346" fill="#000" width="146.7265625" height="18" opacity="1"></rect></mask><g transform="translate(606.9621354305418 203.9077005031346) rotate(0 73.36328125 9)"><text x="73.36328125" y="0" font-family="Helvetica, Segoe UI Emoji" font-size="16px" fill="#495057" text-anchor="middle" style="white-space: pre;" direction="ltr" dominant-baseline="text-before-edge">1. triggers GH action</text></g><g mask="url(#mask-vLYeVEfb4NN2iqFmCuvvY)" stroke-linecap="round"><g transform="translate(691.7421574320474 461.9077005031346) rotate(0 0.1739787283249825 54.75)"><path d="M0 0 C0.1 30.16, 0.19 60.31, 0.35 109.5" stroke="#495057" stroke-width="1.5" fill="none" stroke-dasharray="8 9"></path></g><g transform="translate(691.7421574320474 461.9077005031346) rotate(0 0.1739787283249825 54.75)"><path d="M0.35 109.5 L-6.03 95.93 L6.64 95.89 L0.35 109.5" stroke="none" stroke-width="0" fill="#495057" fill-rule="evenodd"></path><path d="M0.35 109.5 C-1.41 105.76, -3.17 102.02, -6.03 95.93 M-6.03 95.93 C-3.3 95.92, -0.56 95.91, 6.64 95.89 M6.64 95.89 C4.32 100.9, 2 105.92, 0.35 109.5 M0.35 109.5 C0.35 109.5, 0.35 109.5, 0.35 109.5" stroke="#495057" stroke-width="1.5" fill="none"></path></g></g><mask id="mask-vLYeVEfb4NN2iqFmCuvvY"><rect x="0" y="0" fill="#fff" width="792.0901148886974" height="671.4077005031346"></rect><rect x="604.3341049103724" y="489.6577005031346" fill="#000" width="175.1640625" height="54" opacity="1"></rect></mask><g transform="translate(604.3341049103724 489.6577005031345) rotate(0 87.58203125 27)"><text x="87.58203125" y="0" font-family="Helvetica, Segoe UI Emoji" font-size="16px" fill="#495057" text-anchor="middle" style="white-space: pre;" direction="ltr" dominant-baseline="text-before-edge">2. Triggers QA </text><text x="87.58203125" y="18" font-family="Helvetica, Segoe UI Emoji" font-size="16px" fill="#495057" text-anchor="middle" style="white-space: pre;" direction="ltr" dominant-baseline="text-before-edge">assessment for workflow</text><text x="87.58203125" y="36" font-family="Helvetica, Segoe UI Emoji" font-size="16px" fill="#495057" text-anchor="middle" style="white-space: pre;" direction="ltr" dominant-baseline="text-before-edge">validation</text></g><g mask="url(#mask-QhFiX5mCwH5E5T7HkYcz8)" stroke-linecap="round"><g transform="translate(816.6705017089844 652.3138485407745) rotate(0 118.5 -92.40614803764004)"><path d="M0 0 C56.67 0, 113.34 0, 237 0 M237 0 C236.39 -49.45, 235.78 -98.9, 234.71 -184.81" stroke="#495057" stroke-width="1.5" fill="none" stroke-dasharray="8 9"></path></g><g transform="translate(816.6705017089844 652.3138485407745) rotate(0 118.5 -92.40614803764004)"><path d="M234.71 -184.81 L241.22 -171.3 L228.54 -171.14 L234.71 -184.81" stroke="none" stroke-width="0" fill="#495057" fill-rule="evenodd"></path><path d="M234.71 -184.81 C236.27 -181.58, 237.83 -178.35, 241.22 -171.3 M241.22 -171.3 C237.83 -171.26, 234.44 -171.21, 228.54 -171.14 M228.54 -171.14 C231.01 -176.6, 233.47 -182.05, 234.71 -184.81 M234.71 -184.81 C234.71 -184.81, 234.71 -184.81, 234.71 -184.81" stroke="#495057" stroke-width="1.5" fill="none"></path></g></g><mask id="mask-QhFiX5mCwH5E5T7HkYcz8"><rect x="0" y="0" fill="#fff" width="1153.6705017089844" height="937.1261446160546"></rect><rect x="970.0806579589844" y="634.3138485407744" fill="#000" width="167.1796875" height="36.00000000000002" opacity="1"></rect></mask><g transform="translate(970.0806579589844 634.3138485407744) rotate(0 -34.91015625 -74.40614803764004)"><text x="83.58984375" y="0" font-family="Helvetica, Segoe UI Emoji" font-size="16.00000000000001px" fill="#495057" text-anchor="middle" style="white-space: pre;" direction="ltr" dominant-baseline="text-before-edge">3. Returns QA report &amp; </text><text x="83.58984375" y="18.00000000000001" font-family="Helvetica, Segoe UI Emoji" font-size="16.00000000000001px" fill="#495057" text-anchor="middle" style="white-space: pre;" direction="ltr" dominant-baseline="text-before-edge">Badge</text></g><g mask="url(#mask-dK8wwD-EmUoiM9S63Mr4c)" stroke-linecap="round"><g transform="translate(419.8429176434786 152.05425027311983) rotate(0 -121.0862079672471 0)"><path d="M0 0 C-76.93 0, -153.85 0, -242.17 0" stroke="#495057" stroke-width="1.5" fill="none" stroke-dasharray="8 9"></path></g><g transform="translate(419.8429176434786 152.05425027311983) rotate(0 -121.0862079672471 0)"><path d="M-242.17 0 L-228.58 -6.34 L-228.58 6.34 L-242.17 0" stroke="none" stroke-width="0" fill="#495057" fill-rule="evenodd"></path><path d="M-242.17 0 C-237.85 -2.01, -233.54 -4.03, -228.58 -6.34 M-228.58 -6.34 C-228.58 -2.07, -228.58 2.21, -228.58 6.34 M-228.58 6.34 C-233.83 3.89, -239.08 1.44, -242.17 0 M-242.17 0 C-242.17 0, -242.17 0, -242.17 0" stroke="#495057" stroke-width="1.5" fill="none"></path></g></g><mask id="mask-dK8wwD-EmUoiM9S63Mr4c"><rect x="0" y="0" fill="#fff" width="762.0153335779728" height="252.05425027311983"></rect><rect x="222.7293659262316" y="134.05425027311983" fill="#000" width="152.0546875" height="36" opacity="1"></rect></mask><g transform="translate(222.72936592623148 134.05425027311983) rotate(0 76.02734375 18)"><text x="76.02734375" y="0" font-family="Helvetica, Segoe UI Emoji" font-size="16px" fill="#495057" text-anchor="middle" style="white-space: pre;" direction="ltr" dominant-baseline="text-before-edge">4. Displays QA report</text><text x="76.02734375" y="18" font-family="Helvetica, Segoe UI Emoji" font-size="16px" fill="#495057" text-anchor="middle" style="white-space: pre;" direction="ltr" dominant-baseline="text-before-edge">&amp; Badge</text></g></svg>