<?xml version="1.0" encoding="UTF-8" standalone="no"?>
<svg
   xmlns:dc="http://purl.org/dc/elements/1.1/"
   xmlns:cc="http://creativecommons.org/ns#"
   xmlns:rdf="http://www.w3.org/1999/02/22-rdf-syntax-ns#"
   xmlns:svg="http://www.w3.org/2000/svg"
   xmlns="http://www.w3.org/2000/svg"
   xmlns:sodipodi="http://sodipodi.sourceforge.net/DTD/sodipodi-0.dtd"
   xmlns:inkscape="http://www.inkscape.org/namespaces/inkscape"
   id="Black"
   viewBox="0 0 452.98997 149.43713"
   version="1.1"
   sodipodi:docname="rucio.svg"
   width="452.98999"
   height="149.43713"
   inkscape:version="1.0.2 (e86c870879, 2021-01-15)">
  <metadata
     id="metadata87">
    <rdf:RDF>
      <cc:Work
         rdf:about="">
        <dc:format>image/svg+xml</dc:format>
        <dc:type
           rdf:resource="http://purl.org/dc/dcmitype/StillImage" />
        <dc:title>Horizontaled+Tagline_Black</dc:title>
      </cc:Work>
    </rdf:RDF>
  </metadata>
  <sodipodi:namedview
     pagecolor="#ffffff"
     bordercolor="#666666"
     borderopacity="1"
     objecttolerance="10"
     gridtolerance="10"
     guidetolerance="10"
     inkscape:pageopacity="0"
     inkscape:pageshadow="2"
     inkscape:window-width="703"
     inkscape:window-height="480"
     id="namedview85"
     showgrid="false"
     fit-margin-top="20"
     fit-margin-left="20"
     fit-margin-right="20"
     fit-margin-bottom="20"
     inkscape:zoom="0.43679832"
     inkscape:cx="292.04708"
     inkscape:cy="203.23171"
     inkscape:window-x="0"
     inkscape:window-y="0"
     inkscape:window-maximized="0"
     inkscape:current-layer="Black"
     inkscape:document-rotation="0" />
  <defs
     id="defs4">
    <style
       id="style2">.cls-1{fill:#1d1d1b;}</style>
  </defs>
  <title
     id="title6">Horizontaled+Tagline_Black</title>
  <path
     class="cls-1"
     d="m 26.95,118.21 a 15.73,15.73 0 0 1 -2.73,-1.2 3.52,3.52 0 0 1 -1.27,-1.2 3.3,3.3 0 0 1 -0.38,-1.67 2.57,2.57 0 0 1 1,-2.16 4.59,4.59 0 0 1 2.84,-0.78 12.19,12.19 0 0 1 4.73,1 l 0.71,-2 a 13.27,13.27 0 0 0 -5.39,-1.08 7,7 0 0 0 -4.51,1.35 4.35,4.35 0 0 0 -1.71,3.61 5.12,5.12 0 0 0 1.18,3.51 9.17,9.17 0 0 0 3.93,2.32 21,21 0 0 1 2.93,1.25 3.85,3.85 0 0 1 1.37,1.21 3.11,3.11 0 0 1 0.41,1.67 2.85,2.85 0 0 1 -1.16,2.41 5.68,5.68 0 0 1 -3.44,0.87 13.66,13.66 0 0 1 -2.82,-0.3 13.8,13.8 0 0 1 -2.64,-0.8 v 2.2 a 12.83,12.83 0 0 0 5.38,0.9 8.16,8.16 0 0 0 5.11,-1.45 4.83,4.83 0 0 0 1.88,-4 4.66,4.66 0 0 0 -1.16,-3.28 10.87,10.87 0 0 0 -4.26,-2.38 z"
     id="path8" />
  <path
     class="cls-1"
     d="m 44.8,111.2 a 10.52,10.52 0 0 1 4.46,1 l 1,-2 a 12.2,12.2 0 0 0 -5.4,-1.13 9.87,9.87 0 0 0 -5,1.24 8.16,8.16 0 0 0 -3.28,3.52 11.77,11.77 0 0 0 -1.14,5.32 c 0,3.24 0.79,5.73 2.36,7.49 a 8.56,8.56 0 0 0 6.7,2.63 14.46,14.46 0 0 0 5,-0.76 v -2 a 17.28,17.28 0 0 1 -4.69,0.74 6.42,6.42 0 0 1 -5.15,-2.1 8.85,8.85 0 0 1 -1.81,-6 8.71,8.71 0 0 1 1.88,-5.91 6.42,6.42 0 0 1 5.07,-2.04 z"
     id="path10" />
  <rect
     class="cls-1"
     x="53.75"
     y="109.44"
     width="2.28"
     height="19.65"
     id="rect12" />
  <polygon
     class="cls-1"
     points="132.56,264.17 143.51,264.17 143.51,262.13 134.85,262.13 134.85,254.9 142.99,254.9 142.99,252.88 134.85,252.88 134.85,246.56 143.51,246.56 143.51,244.53 132.56,244.53 "
     id="polygon14"
     transform="translate(-71.14,-135.09)" />
  <path
     class="cls-1"
     d="m 89.94,120.71 c 0,0.57 0,1.5 0.07,2.82 0.07,1.32 0.1,2.09 0.12,2.33 H 90.02 L 79.31,109.44 h -2.58 v 19.64 h 2.13 v -11.17 c 0,-1.62 -0.07,-3.39 -0.22,-5.33 h 0.11 l 10.74,16.49 h 2.61 v -19.63 h -2.14 z"
     id="path16" />
  <polygon
     class="cls-1"
     points="174.67,246.56 180.89,246.56 180.89,244.53 166.16,244.53 166.16,246.56 172.38,246.56 172.38,264.17 174.67,264.17 "
     id="polygon18"
     transform="translate(-71.14,-135.09)" />
  <rect
     class="cls-1"
     x="112.71001"
     y="109.44"
     width="2.28"
     height="19.65"
     id="rect20" />
  <polygon
     class="cls-1"
     points="193.8,255.77 201.95,255.77 201.95,253.75 193.8,253.75 193.8,246.56 202.47,246.56 202.47,244.53 191.52,244.53 191.52,264.17 193.8,264.17 "
     id="polygon22"
     transform="translate(-71.14,-135.09)" />
  <rect
     class="cls-1"
     x="134.58"
     y="109.44"
     width="2.28"
     height="19.65"
     id="rect24" />
  <path
     class="cls-1"
     d="m 150.67,111.2 a 10.52,10.52 0 0 1 4.46,1 l 1,-2 a 12.2,12.2 0 0 0 -5.4,-1.13 9.87,9.87 0 0 0 -5.05,1.24 8.16,8.16 0 0 0 -3.28,3.52 11.77,11.77 0 0 0 -1.14,5.32 c 0,3.24 0.79,5.73 2.36,7.49 a 8.56,8.56 0 0 0 6.7,2.63 14.46,14.46 0 0 0 5,-0.76 v -2 a 17.28,17.28 0 0 1 -4.69,0.74 6.42,6.42 0 0 1 -5.15,-2.1 8.85,8.85 0 0 1 -1.81,-6 8.71,8.71 0 0 1 1.88,-5.91 6.44,6.44 0 0 1 5.12,-2.04 z"
     id="path26" />
  <path
     class="cls-1"
     d="m 172.79,109.44 h -6 v 19.64 h 5.44 q 5,0 7.6,-2.57 2.6,-2.57 2.64,-7.44 a 8.82,8.82 0 0 0 -9.66,-9.63 z m 5.19,15.66 q -2.06,2 -6.14,2 h -2.79 v -15.69 h 3.32 q 3.81,0 5.73,1.95 1.92,1.95 1.93,5.79 0,3.95 -2.05,5.95 z"
     id="path28" />
  <path
     class="cls-1"
     d="m 191.86,109.35 -7.77,19.73 h 2.31 l 2.42,-6.25 h 7.88 l 2.44,6.25 h 2.37 l -7.65,-19.73 z m -2.23,11.43 2.31,-6.09 a 25.62,25.62 0 0 0 0.85,-2.84 c 0.31,1.12 0.62,2.07 0.91,2.84 l 2.29,6.09 z"
     id="path30" />
  <polygon
     class="cls-1"
     points="281.44,246.56 287.66,246.56 287.66,244.53 272.93,244.53 272.93,246.56 279.15,246.56 279.15,264.17 281.44,264.17 "
     id="polygon32"
     transform="translate(-71.14,-135.09)" />
  <path
     class="cls-1"
     d="m 224.54,109.35 -7.77,19.73 h 2.32 l 2.42,-6.25 h 7.87 l 2.45,6.25 h 2.36 l -7.73,-19.73 z m -2.23,11.43 2.31,-6.09 a 25.62,25.62 0 0 0 0.85,-2.84 c 0.31,1.12 0.62,2.07 0.91,2.84 l 2.29,6.09 z"
     id="path34" />
  <path
     class="cls-1"
     d="m 253.86,125.64 h -0.11 l -6.22,-16.2 h -3.44 v 19.64 h 2.11 v -12.5 c 0,-1.89 -0.06,-3.53 -0.19,-4.91 h 0.11 l 6.67,17.41 h 1.84 l 6.72,-17.39 h 0.1 c -0.12,1.7 -0.18,3.28 -0.18,4.73 v 12.66 h 2.28 v -19.64 h -3.41 z"
     id="path36" />
  <path
     class="cls-1"
     d="m 273.96,109.35 -7.77,19.73 h 2.31 l 2.42,-6.25 h 7.87 l 2.45,6.25 h 2.37 l -7.75,-19.73 z m -2.23,11.43 2.31,-6.09 a 23.46,23.46 0 0 0 0.84,-2.84 c 0.32,1.12 0.62,2.07 0.92,2.84 l 2.28,6.09 z"
     id="path38" />
  <path
     class="cls-1"
     d="m 299.52,120.71 c 0,0.57 0,1.5 0.06,2.82 0.06,1.32 0.11,2.09 0.13,2.33 h -0.11 l -10.74,-16.42 h -2.58 v 19.64 h 2.11 v -11.17 c 0,-1.62 -0.08,-3.39 -0.22,-5.33 h 0.11 l 10.74,16.49 h 2.6 v -19.63 h -2.13 z"
     id="path40" />
  <path
     class="cls-1"
     d="m 312.12,109.35 -7.76,19.73 h 2.31 l 2.42,-6.25 h 7.87 l 2.45,6.25 h 2.36 l -7.72,-19.73 z m -2.26,11.43 2.31,-6.09 a 25.62,25.62 0 0 0 0.85,-2.84 c 0.31,1.12 0.62,2.07 0.91,2.84 l 2.29,6.09 z"
     id="path42" />
  <path
     class="cls-1"
     d="m 333.11,120.83 h 4.4 v 6.08 a 17.15,17.15 0 0 1 -4,0.47 7.5,7.5 0 0 1 -5.71,-2.06 q -1.93,-2.06 -1.94,-6 a 8.28,8.28 0 0 1 2,-5.93 7.33,7.33 0 0 1 5.6,-2.13 13.1,13.1 0 0 1 5.12,1.12 l 0.89,-2 a 14.84,14.84 0 0 0 -5.86,-1.16 11.49,11.49 0 0 0 -5.42,1.22 8.29,8.29 0 0 0 -3.54,3.52 11.26,11.26 0 0 0 -1.23,5.37 q 0,4.79 2.49,7.44 a 9,9 0 0 0 6.95,2.65 24.15,24.15 0 0 0 3.73,-0.25 20.32,20.32 0 0 0 3.17,-0.76 v -9.55 h -6.68 z"
     id="path44" />
  <polygon
     class="cls-1"
     points="415.65,264.17 426.6,264.17 426.6,262.13 417.94,262.13 417.94,254.9 426.08,254.9 426.08,252.88 417.94,252.88 417.94,246.56 426.6,246.56 426.6,244.53 415.65,244.53 "
     id="polygon46"
     transform="translate(-71.14,-135.09)" />
  <path
     class="cls-1"
     d="m 369.59,125.64 h -0.11 l -6.22,-16.2 h -3.4 v 19.64 h 2.11 v -12.5 c 0,-1.89 -0.07,-3.53 -0.19,-4.91 h 0.08 l 6.66,17.41 h 1.84 l 6.72,-17.39 h 0.11 c -0.13,1.7 -0.19,3.28 -0.19,4.73 v 12.66 h 2.29 v -19.64 h -3.43 z"
     id="path48" />
  <polygon
     class="cls-1"
     points="455.81,264.17 466.76,264.17 466.76,262.13 458.09,262.13 458.09,254.9 466.23,254.9 466.23,252.88 458.09,252.88 458.09,246.56 466.76,246.56 466.76,244.53 455.81,244.53 "
     id="polygon50"
     transform="translate(-71.14,-135.09)" />
  <path
     class="cls-1"
     d="m 413.18,120.71 c 0,0.57 0,1.5 0.07,2.82 0.07,1.32 0.1,2.09 0.12,2.33 h -0.11 l -10.71,-16.42 h -2.58 v 19.64 h 2.11 v -11.17 c 0,-1.62 -0.07,-3.39 -0.21,-5.33 h 0.11 l 10.73,16.49 h 2.61 v -19.63 h -2.14 z"
     id="path52" />
  <polygon
     class="cls-1"
     points="497.91,264.17 497.91,246.56 504.13,246.56 504.13,244.53 489.4,244.53 489.4,246.56 495.63,246.56 495.63,264.17 "
     id="polygon54"
     transform="translate(-71.14,-135.09)" />
  <path
     class="cls-1"
     d="m 165.86,43.05 q 0,-21.88 -30.2,-21.89 h -24.23 v 74.08 h 20 v -27 h 5.06 l 15.71,27 h 22.7 L 153.31,62.96 q 12.55,-7.05 12.55,-19.91 z m -30.7,10.18 h -3.75 V 36.31 h 3.95 q 10.28,0 10.28,7.65 0.04,9.27 -10.44,9.27 z"
     id="path56" />
  <path
     class="cls-1"
     d="m 224.62,64.53 q 0,8 -2.76,11.53 -2.76,3.53 -8.89,3.52 -5.73,0 -8.67,-3.55 -2.94,-3.55 -2.93,-11.4 V 21.16 h -20.12 v 45 q 0,14.55 8.13,22.3 8.13,7.75 23.28,7.75 15.51,0 23.74,-8 8.23,-8 8.23,-22.52 V 21.16 h -20 z"
     id="path58" />
  <path
     class="cls-1"
     d="m 293.17,36.51 a 28.68,28.68 0 0 1 8.82,1.32 69.71,69.71 0 0 1 8.2,3.24 l 6.14,-15.75 a 52.71,52.71 0 0 0 -23,-5.22 37.65,37.65 0 0 0 -19.12,4.68 31.08,31.08 0 0 0 -12.47,13.41 44.94,44.94 0 0 0 -4.33,20.21 q 0,18.39 9,28.12 9,9.73 25.71,9.73 a 51.22,51.22 0 0 0 21,-4.11 V 75.22 a 95.39,95.39 0 0 1 -9.27,3.3 33.35,33.35 0 0 1 -9.52,1.36 q -16.28,0 -16.27,-21.38 0,-10.28 4,-16.13 a 12.73,12.73 0 0 1 11.11,-5.86 z"
     id="path60" />
  <rect
     class="cls-1"
     x="327.51999"
     y="21.16"
     width="20.110001"
     height="74.07"
     id="rect62" />
  <path
     class="cls-1"
     d="M 423.86,29.67 Q 414.74,20 397.06,20 q -17.68,0 -26.88,9.75 -9.26,9.75 -9.25,28.25 0,18.69 9.3,28.47 9.3,9.78 26.73,9.78 17.67,0 26.85,-9.73 9.18,-9.73 9.17,-28.42 -0.02,-18.75 -9.12,-28.43 z m -15.63,44.69 q -3.68,5.22 -11.27,5.22 -15,0 -14.95,-21.48 0,-21.69 15.05,-21.69 7.4,0 11.12,5.3 3.72,5.3 3.68,16.39 0,11.04 -3.65,16.26 z"
     id="path64" />
  <path
     class="cls-1"
     d="m 92.96,81.91 v 9.26 a 1.79,1.79 0 0 1 -1.79,1.78 H 25.09 A 1.79,1.79 0 0 1 23.3,91.17 H 20 a 5.09,5.09 0 0 0 5.09,5.08 h 66.08 a 5.09,5.09 0 0 0 5.09,-5.08 V 78.91 a 11.64,11.64 0 0 1 -3.3,3 z"
     id="path66" />
  <path
     class="cls-1"
     d="m 92.96,25.08 v 36.83 a 11.75,11.75 0 0 1 3.3,3 V 25.08 A 5.09,5.09 0 0 0 91.17,20 H 54.03 v 3.29 h 37.14 a 1.79,1.79 0 0 1 1.79,1.79 z"
     id="path68" />
  <path
     class="cls-1"
     d="m 91.76,63.5 -8.39,-4.85 v 0 l -9.54,-5.5 v 0 a 11,11 0 0 0 -15,4 L 40.09,89.62 h 25.44 l 9.33,-16.13 3,1.72 a 9.69,9.69 0 1 0 14,-11.71 z M 72.4,58.67 a 4,4 0 1 1 1.46,5.45 4,4 0 0 1 -1.46,-5.45 z M 94.77,76.44 A 9.07,9.07 0 0 1 78.39,75 l -0.08,-0.21 -0.19,-0.12 -3,-1.72 2.74,-4.74 c 0.11,-0.19 0.21,-0.39 0.31,-0.58 l 4.87,-8.44 8.39,4.85 a 9.07,9.07 0 0 1 3.34,12.4 z"
     id="path70" />
  <circle
     class="cls-1"
     cx="92.919998"
     cy="71.519997"
     r="1.7"
     id="circle72" />
  <path
     class="cls-1"
     d="m 38.94,86.76 -2.69,-1.56 1.55,-2.69 2.69,1.56 z m 3.11,-5.39 -2.69,-1.55 1.55,-2.69 2.69,1.55 z m 3.11,-5.38 -2.7,-1.56 1.56,-2.69 2.69,1.55 z m 3.11,-5.39 -2.7,-1.55 1.56,-2.7 2.73,1.56 z m 3.11,-5.38 -2.7,-1.56 1.56,-2.69 2.69,1.55 z m 3.11,-5.39 -2.7,-1.55 1.56,-2.7 2.69,1.56 z m 3.09,-5.18 -2.49,-1.86 a 16.73,16.73 0 0 1 2.32,-2.51 l 2.06,2.33 a 13.53,13.53 0 0 0 -1.89,2.04 z m 17.47,-3.58 a 13.43,13.43 0 0 0 -2.54,-1.14 l 1,-3 a 16.2,16.2 0 0 1 3.13,1.4 z M 61.73,51 60.21,48.29 a 16.2,16.2 0 0 1 3.14,-1.36 l 0.94,3 A 13.85,13.85 0 0 0 61.73,51 Z m 8.06,-1.65 a 12.92,12.92 0 0 0 -2.78,0 L 66.7,46.26 a 17.09,17.09 0 0 1 3.43,0 z"
     id="path74" />
  <path
     class="cls-1"
     d="m 40.41,29.43 a 0.68,0.68 0 0 1 0.68,-1.1 19.3,19.3 0 0 1 14.68,17.5 0.67,0.67 0 0 1 -1.19,0.48 z"
     id="path76" />
  <path
     class="cls-1"
     d="M 25.45,37.91 A 0.86,0.86 0 0 0 24.23,39 24.47,24.47 0 0 0 49.31,53.48 0.86,0.86 0 0 0 49.65,51.88 Z"
     id="path78" />
  <circle
     class="cls-1"
     cx="78.149994"
     cy="60.580002"
     r="1.7"
     id="circle80" />
  <path
     class="cls-1"
     d="m 94.86,76.54 a 47.69,47.69 0 0 1 -9,-0.85 l -0.3,1.58 a 51.42,51.42 0 0 0 8.14,0.86 9.46,9.46 0 0 0 1.18,-1.55 z"
     id="path82" />
</svg>
